<svg width="409" height="176" viewBox="0 0 409 176" fill="none" xmlns="http://www.w3.org/2000/svg">
<path d="M23.9507 166.484C23.5112 166.777 23.0718 167.07 22.6323 167.363C22.1929 167.656 21.7534 167.949 21.314 168.242C19.7026 169.121 18.2378 169.634 16.9194 169.78C15.6011 169.78 14.1362 170.513 12.5249 171.978C11.939 171.245 11.4995 170.879 11.2065 170.879C10.9136 170.879 10.4009 170.879 9.66846 170.879C7.76416 170.879 6.66553 170.366 6.37256 169.341C5.78662 169.487 4.83447 169.854 3.51611 170.439C2.34424 171.025 1.46533 171.465 0.879395 171.758C2.19775 169.854 3.07666 168.389 3.51611 167.363C3.95557 166.338 4.17529 165.386 4.17529 164.507C4.32178 163.628 4.39502 162.749 4.39502 161.87C4.5415 160.845 4.90771 159.453 5.49365 157.695C5.78662 157.109 6.00635 156.523 6.15283 155.938C6.29932 155.352 6.51904 154.692 6.81201 153.96C7.54443 151.763 8.13037 149.272 8.56982 146.489C9.15576 143.706 10.0347 141.289 11.2065 139.238C11.2065 136.748 11.7192 134.404 12.7446 132.207C13.9165 130.01 14.8687 127.739 15.6011 125.396C15.894 124.517 16.2603 123.638 16.6997 122.759C17.2856 121.88 17.7251 121.001 18.0181 120.122C18.604 118.657 19.0435 117.266 19.3364 115.947C19.7759 114.482 20.2153 113.091 20.6548 111.772C21.8267 107.524 22.9985 103.35 24.1704 99.248C25.3423 95 26.4409 90.752 27.4663 86.5039C27.6128 85.7715 27.7593 84.9658 27.9058 84.0869C28.1987 83.208 28.4917 82.4023 28.7847 81.6699C29.5171 79.4727 29.9565 77.2754 30.103 75.0781C30.396 72.7344 31.1284 70.5371 32.3003 68.4863C32.1538 67.4609 32.1538 66.5088 32.3003 65.6299C32.5933 64.751 32.8862 63.7988 33.1792 62.7734C33.4722 61.748 33.7651 60.7959 34.0581 59.917C34.3511 59.0381 34.5708 58.3789 34.7173 57.9395C35.4497 56.0352 35.9624 54.3506 36.2554 52.8857C36.6948 51.2744 37.5005 49.5898 38.6724 47.832C38.6724 47.832 38.8921 47.0996 39.3315 45.6348C39.771 44.0234 40.2837 42.2656 40.8696 40.3613C41.4556 38.457 41.9683 36.6992 42.4077 35.0879C42.8472 33.3301 43.0669 32.3047 43.0669 32.0117C43.3599 30.8398 43.5796 29.7412 43.7261 28.7158C44.019 27.6904 44.312 26.5918 44.605 25.4199C44.8979 24.6875 45.1909 24.1016 45.4839 23.6621C45.7769 23.0762 46.0698 22.417 46.3628 21.6846C46.8022 20.0732 47.2417 18.0957 47.6812 15.752C48.1206 13.4082 48.7065 11.5771 49.439 10.2588C49.8784 9.2334 50.6841 8.42773 51.856 7.8418C53.1743 7.10937 54.2729 6.37695 55.1519 5.64453C57.7886 5.9375 59.6929 5.79102 60.8647 5.20508C62.1831 4.61914 63.4282 3.88672 64.6001 3.00781C65.3325 3.1543 65.9917 3.37402 66.5776 3.66699C67.3101 3.81348 68.0425 3.88672 68.7749 3.88672C71.5581 6.96289 73.4624 10.1123 74.4878 13.335C75.6597 16.5576 76.7583 19.7803 77.7837 23.0029C78.2231 24.6143 78.6626 26.2256 79.1021 27.8369C79.5415 29.3018 80.0542 30.7666 80.6401 32.2314C80.7866 32.6709 81.0063 33.1836 81.2993 33.7695C81.5923 34.209 81.8853 34.7217 82.1782 35.3076C82.9106 36.4795 83.4966 37.7246 83.936 39.043C84.522 40.3613 85.0347 41.6797 85.4741 42.998C86.353 44.0234 87.0122 45.2686 87.4517 46.7334C87.8911 48.0518 88.2573 49.4434 88.5503 50.9082C88.9897 52.2266 89.4292 53.5449 89.8687 54.8633C90.3081 56.0352 90.9673 57.0605 91.8462 57.9395C92.1392 59.5508 92.6519 61.1621 93.3843 62.7734C94.1167 64.2383 94.6294 65.8496 94.9224 67.6074C95.8013 68.7793 96.8267 71.0498 97.9985 74.4189C99.1704 77.6416 100.342 81.1572 101.514 84.9658C102.686 88.7744 103.785 92.4365 104.81 95.9521C105.835 99.4678 106.568 101.958 107.007 103.423C107.3 104.595 107.886 106.133 108.765 108.037C109.644 109.795 110.45 111.406 111.182 112.871C111.768 114.482 112.354 116.167 112.94 117.925C113.672 119.683 114.258 121.367 114.698 122.979C114.991 124.59 115.284 126.128 115.577 127.593C116.016 129.058 116.456 130.596 116.895 132.207C117.188 133.232 117.627 134.185 118.213 135.063C118.799 135.796 119.239 136.748 119.532 137.92C120.118 139.092 120.484 140.19 120.63 141.216C120.923 142.241 121.436 143.34 122.168 144.512C122.022 146.123 122.095 147.148 122.388 147.588C122.681 148.027 122.974 148.54 123.267 149.126C123.853 152.202 124.512 154.692 125.245 156.597C125.977 158.354 126.343 160.259 126.343 162.31C126.343 164.067 125.977 165.166 125.245 165.605C124.659 166.045 123.853 166.777 122.828 167.803C121.656 168.828 120.63 169.634 119.751 170.22C119.019 170.806 117.847 171.099 116.236 171.099C114.478 170.952 113.379 171.172 112.94 171.758C112.647 172.49 112.427 173.003 112.281 173.296C110.523 173.149 109.351 173.076 108.765 173.076C108.326 173.223 107.813 173.296 107.227 173.296C106.788 173.296 106.275 173.369 105.689 173.516C105.25 173.809 104.737 174.321 104.151 175.054C103.125 173.882 102.1 172.783 101.075 171.758C100.196 170.879 99.3901 169.854 98.6577 168.682C98.6577 166.191 98.2915 163.262 97.5591 159.893C96.9731 156.523 96.314 153.887 95.5815 151.982C94.1167 148.174 92.7251 144.438 91.4067 140.776C90.2349 137.114 89.063 133.379 87.8911 129.57C87.4517 127.959 86.939 126.494 86.353 125.176C85.9136 123.857 85.4009 122.466 84.8149 121.001C85.1079 122.173 85.1812 123.418 85.0347 124.736C85.0347 125.908 84.6685 127.08 83.936 128.252C83.6431 128.545 83.2036 128.911 82.6177 129.351C82.0317 129.79 81.7388 130.156 81.7388 130.449C79.981 131.914 78.4429 133.306 77.1245 134.624C77.271 137.261 76.9048 139.092 76.0259 140.117C75.147 141.143 74.1948 142.095 73.1694 142.974C70.6792 143.12 69.1411 142.974 68.5552 142.534C67.9692 142.095 67.1636 141.802 66.1382 141.655C65.5522 141.509 64.9663 141.509 64.3804 141.655C63.7944 141.655 63.2085 141.655 62.6226 141.655C61.4507 141.655 60.3521 141.362 59.3267 140.776C58.8872 140.483 58.521 140.19 58.228 139.897C58.0815 139.604 57.8618 139.312 57.5688 139.019C56.397 137.847 55.0054 136.895 53.394 136.162C51.9292 135.283 50.4644 134.551 48.9995 133.965C47.8276 132.939 46.5825 131.914 45.2642 130.889C44.0923 129.717 42.8472 128.765 41.5288 128.032C40.3569 130.815 39.4048 133.306 38.6724 135.503C38.0864 137.554 37.354 139.604 36.4751 141.655C34.8638 146.636 33.5454 151.03 32.52 154.839C31.4946 158.501 30.3228 162.236 29.0044 166.045C28.4185 166.191 27.8325 166.411 27.2466 166.704C26.8071 166.997 26.2212 167.144 25.4888 167.144L23.9507 166.484ZM45.4839 119.683C46.6558 117.632 47.6812 116.533 48.5601 116.387C49.5854 116.094 50.4644 115.508 51.1968 114.629C51.4897 114.336 51.7827 113.97 52.0757 113.53C52.5151 113.091 52.9546 112.651 53.394 112.212C53.8335 111.919 54.3462 111.626 54.9321 111.333C55.5181 111.04 56.0308 110.674 56.4702 110.234C57.6421 109.209 58.5942 108.33 59.3267 107.598C60.2056 106.865 61.4507 106.499 63.062 106.499C65.5522 106.499 67.603 107.158 69.2144 108.477C70.8257 109.648 72.8032 110.454 75.147 110.894C75.4399 111.772 76.3921 112.432 78.0034 112.871C79.6147 113.164 80.8599 113.604 81.7388 114.189C80.2739 110.527 79.1021 106.865 78.2231 103.203C77.4907 99.3945 76.5386 95.6592 75.3667 91.9971C74.4878 88.7744 73.4624 85.625 72.2905 82.5488C71.1187 79.3262 69.9468 76.25 68.7749 73.3203C67.7495 70.3906 66.8706 67.5342 66.1382 64.751C65.4058 61.9678 64.4536 59.2578 63.2817 56.6211C62.1099 59.2578 60.938 62.4805 59.7661 66.2891C58.5942 70.0977 57.7153 73.4668 57.1294 76.3965C57.1294 77.7148 57.0562 78.7402 56.9097 79.4727C56.6167 80.498 56.3237 81.4502 56.0308 82.3291C55.7378 83.0615 55.4448 83.8672 55.1519 84.7461C53.2476 90.459 51.4897 96.2451 49.8784 102.104C48.4136 107.964 46.6558 113.823 44.605 119.683H45.4839ZM234.888 64.0918C233.57 66.875 231.739 69.5117 229.395 72.002C227.198 74.4922 225.074 76.8359 223.023 79.0332C221.412 80.6445 220.02 82.4023 218.848 84.3066C217.676 86.2109 216.358 87.9688 214.893 89.5801C213.721 90.8984 212.549 92.1436 211.377 93.3154C210.206 94.3408 209.107 95.5127 208.082 96.8311C207.349 97.417 206.617 98.0029 205.884 98.5889C205.298 99.1748 204.712 99.9072 204.126 100.786C206.324 105.474 208.887 109.722 211.817 113.53C214.893 117.339 218.042 121.147 221.265 124.956C222.876 126.86 224.488 128.691 226.099 130.449C227.71 132.061 229.102 133.818 230.274 135.723C231.299 137.92 232.325 139.604 233.35 140.776C234.522 141.802 235.547 142.9 236.426 144.072C237.305 145.537 238.038 146.855 238.624 148.027C239.356 149.053 240.308 150.078 241.48 151.104C241.48 151.836 241.919 152.568 242.798 153.301C243.677 153.887 244.263 154.546 244.556 155.278C244.556 156.011 244.556 156.597 244.556 157.036C244.703 157.476 244.776 157.842 244.776 158.135C244.336 159.307 243.531 160.332 242.359 161.211C241.333 161.943 240.381 162.749 239.502 163.628C238.038 163.628 236.792 164.067 235.767 164.946C234.742 165.825 233.35 166.265 231.592 166.265C230.86 166.851 230.274 167.51 229.834 168.242C229.395 168.828 228.809 169.414 228.077 170C226.905 170 225.806 170.293 224.781 170.879C223.902 171.611 222.876 172.124 221.705 172.417C220.24 171.538 219.068 170.439 218.189 169.121C217.31 167.656 216.138 166.558 214.673 165.825C214.527 165.093 214.234 164.507 213.794 164.067C213.501 163.481 213.208 162.896 212.916 162.31C210.425 159.526 208.082 156.597 205.884 153.521C203.687 150.444 201.49 147.368 199.292 144.292C198.121 142.974 196.875 141.729 195.557 140.557C194.385 139.238 193.213 137.847 192.042 136.382C191.309 135.503 190.577 134.478 189.844 133.306C189.112 132.134 188.306 131.035 187.427 130.01C186.402 129.131 185.523 128.105 184.791 126.934C184.058 125.762 183.179 124.81 182.154 124.077C180.835 124.81 179.664 125.762 178.638 126.934C177.613 128.105 176.441 129.131 175.123 130.01C173.951 131.035 172.779 132.061 171.607 133.086C170.582 134.111 169.483 135.063 168.311 135.942C168.018 139.312 167.872 142.607 167.872 145.83C167.872 148.906 167.872 151.982 167.872 155.059C167.872 157.549 167.798 159.966 167.652 162.31C167.652 164.507 167.359 166.777 166.773 169.121C166.041 169.268 165.308 168.901 164.576 168.022C163.99 166.997 163.331 166.411 162.598 166.265C162.012 166.411 161.5 166.704 161.06 167.144C160.767 167.583 160.254 167.656 159.522 167.363C158.79 168.096 157.691 168.755 156.226 169.341C155.494 169.341 154.688 169.487 153.809 169.78C152.93 169.927 152.125 170 151.392 170C150.22 170 149.415 169.854 148.975 169.561C147.51 170.586 146.265 171.099 145.24 171.099C144.361 171.245 143.628 171.318 143.042 171.318C142.75 170.293 142.457 169.341 142.164 168.462C141.871 167.437 141.651 166.338 141.504 165.166C141.065 164.58 140.699 163.921 140.406 163.188C140.259 162.456 140.04 161.724 139.747 160.991C139.893 160.552 139.966 160.039 139.966 159.453C139.966 158.867 139.966 158.281 139.966 157.695C139.966 155.205 139.893 152.788 139.747 150.444C139.6 148.101 139.673 145.684 139.966 143.193C139.673 142.461 139.454 141.729 139.307 140.996C139.161 140.264 139.087 139.531 139.087 138.799C139.087 138.359 139.087 137.847 139.087 137.261C139.234 136.675 139.454 136.235 139.747 135.942C139.307 134.038 139.014 132.061 138.868 130.01C138.868 127.812 138.868 125.762 138.868 123.857C138.868 122.832 138.941 121.807 139.087 120.781C139.38 119.609 139.527 118.438 139.527 117.266C139.527 114.775 139.38 112.358 139.087 110.015C138.794 107.671 138.648 105.327 138.648 102.983C138.794 101.372 138.868 100.127 138.868 99.248C138.868 98.3691 138.941 97.4902 139.087 96.6113C139.234 95.7324 139.161 94.8535 138.868 93.9746C139.014 93.2422 139.161 92.7295 139.307 92.4365C139.6 91.9971 139.747 91.4111 139.747 90.6787C139.747 88.7744 139.747 86.9434 139.747 85.1855C139.893 83.2812 139.966 81.3037 139.966 79.2529C139.966 77.7881 139.966 76.3965 139.966 75.0781C140.113 73.6133 140.186 72.0752 140.186 70.4639C140.186 69.1455 140.259 67.9004 140.406 66.7285C140.699 65.5566 140.918 64.3848 141.065 63.2129C141.211 61.8945 141.285 60.6494 141.285 59.4775C141.285 58.1592 141.285 56.9141 141.285 55.7422C141.285 52.666 141.285 49.5898 141.285 46.5137C141.285 43.291 141.138 40.1416 140.845 37.0654C140.699 36.333 140.552 35.5273 140.406 34.6484C140.259 33.7695 140.186 32.8906 140.186 32.0117C139.893 29.2285 139.673 26.3721 139.527 23.4424C139.38 20.5127 139.087 17.583 138.648 14.6533C138.941 14.2139 139.087 13.7744 139.087 13.335C139.087 12.749 139.087 12.2363 139.087 11.7969C139.087 11.0645 139.087 10.4053 139.087 9.81934C139.087 9.08691 139.014 8.35449 138.868 7.62207C139.161 7.3291 139.454 7.03613 139.747 6.74316C140.04 6.30371 140.333 5.9375 140.625 5.64453C141.504 5.64453 142.383 5.71777 143.262 5.86426C144.288 5.86426 145.167 6.15723 145.899 6.74316C146.631 6.4502 147.437 6.15723 148.316 5.86426C149.341 5.4248 150.22 5.20508 150.953 5.20508C152.125 5.20508 153.003 5.49805 153.589 6.08398C154.322 5.79102 154.688 5.49805 154.688 5.20508C154.834 4.76562 155.42 4.5459 156.446 4.5459C158.35 4.39941 159.668 4.32617 160.401 4.32617C161.28 4.32617 162.085 4.25293 162.818 4.10645C163.257 4.39941 163.624 4.76562 163.917 5.20508C164.209 5.64453 164.502 6.08398 164.795 6.52344C168.018 7.69531 170.582 9.37988 172.486 11.5771C174.537 13.6279 176.807 15.3857 179.297 16.8506C179.883 17.29 180.469 17.6562 181.055 17.9492C181.641 18.2422 182.227 18.5352 182.813 18.8281C184.131 19.707 185.45 20.6592 186.768 21.6846C188.086 22.71 189.478 23.5889 190.943 24.3213C192.408 25.0537 193.213 25.4932 193.36 25.6396C193.653 25.6396 193.873 25.7861 194.019 26.0791C197.242 27.251 200.098 28.8623 202.588 30.9131C205.225 32.8174 208.008 34.5752 210.938 36.1865C211.963 36.7725 213.208 37.3584 214.673 37.9443C216.285 38.5303 217.823 39.1895 219.288 39.9219C220.899 40.5078 222.364 41.167 223.682 41.8994C225.147 42.6318 226.246 43.4375 226.978 44.3164C228.589 45.9277 229.981 47.0996 231.153 47.832C232.471 48.418 233.716 49.1504 234.888 50.0293L235.108 55.9619C235.108 56.9873 234.961 57.9395 234.668 58.8184C234.522 59.6973 234.449 60.6494 234.449 61.6748C234.449 62.4072 234.595 63.2129 234.888 64.0918ZM204.786 58.3789C203.174 57.5 201.563 56.6943 199.952 55.9619C198.34 55.083 196.949 53.9111 195.777 52.4463C194.751 52.1533 192.92 51.4941 190.284 50.4688C187.647 49.2969 184.937 48.125 182.154 46.9531C179.517 45.6348 177.027 44.5361 174.683 43.6572C172.486 42.6318 171.241 42.1191 170.948 42.1191C170.508 42.2656 170.289 43.2178 170.289 44.9756C170.289 46.7334 170.289 48.6377 170.289 50.6885C170.289 52.7393 170.289 54.7168 170.289 56.6211C170.289 58.5254 170.289 59.6973 170.289 60.1367C170.289 62.9199 170.215 65.6299 170.069 68.2666C169.922 70.9033 169.703 73.6133 169.41 76.3965C169.117 76.8359 168.897 77.2754 168.75 77.7148C168.604 78.0078 168.458 78.374 168.311 78.8135C168.018 80.8643 167.872 83.5742 167.872 86.9434C167.872 90.3125 167.872 93.0225 167.872 95.0732C167.872 96.0986 167.872 97.0508 167.872 97.9297C167.872 98.8086 167.945 99.834 168.091 101.006C168.824 101.006 169.336 100.859 169.629 100.566C169.922 100.127 170.435 99.7607 171.167 99.4678C173.072 97.417 174.976 95.4395 176.88 93.5352C178.785 91.6309 180.762 89.6533 182.813 87.6025C183.692 86.7236 184.571 85.7715 185.45 84.7461C186.329 83.7207 187.281 82.8418 188.306 82.1094C189.039 81.2305 189.698 80.4248 190.284 79.6924C190.87 78.8135 191.529 78.0078 192.261 77.2754C194.312 75.0781 196.436 72.9541 198.633 70.9033C200.831 68.7061 202.662 66.2891 204.126 63.6523C205.152 62.9199 206.104 61.748 206.983 60.1367C205.958 59.9902 205.225 59.4043 204.786 58.3789ZM293.116 110.015C293.409 110.747 294.507 112.358 296.412 114.849C298.316 117.192 300.44 119.829 302.784 122.759C305.274 125.542 307.691 128.252 310.035 130.889C312.378 133.525 313.99 135.43 314.869 136.602C317.652 140.703 320.508 144.731 323.438 148.687C326.368 152.642 329.151 156.743 331.788 160.991C332.52 161.724 333.106 162.676 333.545 163.848C333.985 164.873 334.205 165.972 334.205 167.144C334.205 168.462 333.838 169.194 333.106 169.341C332.52 169.341 331.861 169.487 331.128 169.78C329.664 170.806 328.345 171.392 327.173 171.538C326.001 171.685 325.049 171.758 324.317 171.758C322.706 171.758 320.948 171.685 319.043 171.538C317.139 171.538 315.528 171.685 314.209 171.978C313.77 172.124 313.257 172.344 312.671 172.637C312.085 173.076 311.646 173.296 311.353 173.296C310.181 173.296 309.302 173.076 308.716 172.637C308.277 172.344 307.618 172.051 306.739 171.758C305.567 170.439 304.468 169.048 303.443 167.583C302.564 166.118 301.612 164.653 300.586 163.188C299.708 162.163 298.755 161.284 297.73 160.552C296.705 159.673 295.752 158.647 294.874 157.476C292.53 154.106 290.113 150.884 287.623 147.808C285.279 144.731 282.862 141.655 280.372 138.579C279.2 136.968 277.881 135.43 276.417 133.965C275.098 132.5 273.853 131.035 272.681 129.57C271.509 127.959 270.411 126.274 269.385 124.517C268.36 122.759 267.261 121.074 266.089 119.463C265.21 117.998 263.965 116.24 262.354 114.189C260.743 111.992 259.058 109.795 257.3 107.598C255.542 105.4 253.711 103.35 251.807 101.445C250.049 99.3945 248.511 97.8564 247.193 96.8311C247.193 95.8057 246.9 95.0732 246.314 94.6338C245.728 94.1943 245.069 93.6816 244.336 93.0957C244.043 92.3633 243.677 91.7041 243.238 91.1182C242.798 90.3857 242.579 89.5801 242.579 88.7012C242.579 88.1152 242.652 87.6025 242.798 87.1631C242.945 86.7236 243.091 86.2842 243.238 85.8447C243.531 85.2588 243.677 84.7461 243.677 84.3066C243.824 83.7207 244.043 83.1348 244.336 82.5488C245.069 80.6445 246.094 78.96 247.413 77.4951C248.877 76.0303 249.976 74.3457 250.708 72.4414C250.855 71.8555 250.928 71.3428 250.928 70.9033C250.928 70.3174 251.075 69.7314 251.368 69.1455C251.807 68.2666 252.466 67.3877 253.345 66.5088C254.224 65.6299 255.03 64.6777 255.762 63.6523C256.495 62.334 257.227 61.0156 257.959 59.6973C258.692 58.3789 259.424 57.0605 260.157 55.7422C262.208 52.373 264.478 49.1504 266.968 46.0742C269.458 42.8516 271.802 39.7021 274 36.626C276.05 33.6963 277.955 30.8398 279.712 28.0566C281.47 25.127 283.375 22.1973 285.425 19.2676C286.451 17.8027 287.623 16.1914 288.941 14.4336C290.259 12.5293 291.578 10.6982 292.896 8.94043C294.361 7.18262 295.826 5.57129 297.291 4.10645C298.755 2.49512 300.22 1.32324 301.685 0.59082C304.175 0.297852 305.787 0.737305 306.519 1.90918C307.251 2.93457 308.277 3.44727 309.595 3.44727C311.646 3.88672 313.038 4.5459 313.77 5.4248C314.502 6.30371 315.235 7.10937 315.967 7.8418C317.872 7.8418 319.483 8.20801 320.801 8.94043C322.12 9.67285 323.438 10.7715 324.756 12.2363C324.17 13.8477 323.365 15.3125 322.339 16.6309C321.46 17.9492 320.655 19.3408 319.922 20.8057C318.75 21.2451 317.872 21.9775 317.286 23.0029C316.846 24.0283 316.114 24.9072 315.088 25.6396C313.477 28.1299 311.866 30.6201 310.254 33.1104C308.643 35.4541 307.032 37.7246 305.42 39.9219C304.688 40.8008 303.809 41.5332 302.784 42.1191C301.905 42.5586 301.172 43.291 300.586 44.3164C300.293 44.7559 300.074 45.2686 299.927 45.8545C299.781 46.2939 299.561 46.7334 299.268 47.1729C297.51 49.9561 295.533 52.666 293.335 55.3027C291.138 57.9395 289.234 60.7227 287.623 63.6523C286.89 64.6777 286.304 65.7764 285.865 66.9482C285.425 67.9736 284.913 68.999 284.327 70.0244C283.741 70.9033 282.862 72.1484 281.69 73.7598C280.665 75.3711 279.566 77.0557 278.394 78.8135C277.369 80.4248 276.417 82.0361 275.538 83.6475C274.805 85.1123 274.439 86.3574 274.439 87.3828C274.585 88.1152 275.538 89.5801 277.295 91.7773C279.053 93.9746 280.958 96.3184 283.008 98.8086C285.206 101.299 287.256 103.643 289.161 105.84C291.211 108.037 292.53 109.429 293.116 110.015ZM391.993 6.52344C393.018 8.42773 393.531 10.625 393.531 13.1152C393.531 15.3125 393.091 17.6562 392.212 20.1465C391.333 22.6367 389.942 24.541 388.038 25.8594C386.719 28.7891 385.401 31.2061 384.083 33.1104C382.911 34.8682 381.739 36.626 380.567 38.3838C380.127 39.4092 379.688 40.4346 379.249 41.46C378.809 42.3389 378.223 43.291 377.491 44.3164C377.051 45.0488 376.099 46.5137 374.634 48.7109C373.169 50.9082 371.631 53.252 370.02 55.7422C368.555 58.0859 367.237 60.3564 366.065 62.5537C364.893 64.751 364.307 66.1426 364.307 66.7285C364.307 67.3145 364.966 68.0469 366.285 68.9258C367.75 69.8047 368.702 70.4639 369.141 70.9033C369.874 71.6357 370.533 72.3682 371.119 73.1006C371.851 73.833 372.583 74.5654 373.316 75.2979C374.927 76.6162 376.465 77.9346 377.93 79.2529C379.542 80.5713 381.153 82.0361 382.764 83.6475C385.84 86.4307 389.063 89.0674 392.432 91.5576C395.801 94.0479 398.804 96.9775 401.441 100.347C403.931 101.079 405.542 102.837 406.275 105.62C407.007 108.403 407.227 111.04 406.934 113.53C407.227 113.97 407.447 114.409 407.593 114.849C407.886 115.288 408.179 115.801 408.472 116.387C408.472 118.73 408.106 120.488 407.374 121.66C406.788 122.686 406.128 124.004 405.396 125.615C404.664 127.08 404.151 128.545 403.858 130.01C403.711 131.475 403.272 132.793 402.54 133.965C402.247 134.404 401.807 134.771 401.221 135.063C400.782 135.356 400.416 135.796 400.123 136.382C399.537 137.407 399.024 138.652 398.584 140.117C398.292 141.436 397.852 142.681 397.266 143.853C396.827 145.024 396.241 146.196 395.508 147.368C394.922 148.54 394.41 149.712 393.97 150.884C393.677 151.616 393.384 152.495 393.091 153.521C392.945 154.546 392.286 155.278 391.114 155.718C390.381 158.354 389.356 160.918 388.038 163.408C386.866 165.898 385.914 168.462 385.181 171.099C383.863 171.538 382.178 172.344 380.127 173.516C378.223 174.834 376.685 175.493 375.513 175.493C375.074 175.493 374.708 175.273 374.415 174.834C374.122 174.395 373.682 174.028 373.096 173.735C372.803 173.589 372.364 173.589 371.778 173.735C371.338 173.882 370.972 173.955 370.679 173.955C369.947 173.955 369.361 173.662 368.921 173.076C368.628 172.49 368.189 172.051 367.603 171.758C367.164 171.904 366.724 172.051 366.285 172.197C365.845 172.344 365.406 172.417 364.966 172.417C363.941 172.417 363.355 172.124 363.208 171.538C363.062 171.099 362.623 170.659 361.89 170.22C360.132 169.341 359.107 168.535 358.814 167.803C358.521 167.07 358.082 166.558 357.496 166.265C358.521 162.456 359.913 158.867 361.67 155.498C363.428 151.982 365.113 148.467 366.724 144.951C367.164 143.779 367.676 142.681 368.262 141.655C368.995 140.63 369.654 139.531 370.24 138.359C370.679 137.334 371.338 136.016 372.217 134.404C373.096 132.793 373.902 131.108 374.634 129.351C375.367 127.593 376.026 125.981 376.612 124.517C377.198 122.905 377.491 121.587 377.491 120.562C377.491 118.511 376.905 116.973 375.733 115.947C371.485 112.432 367.457 108.843 363.648 105.181C359.986 101.519 356.104 97.7832 352.002 93.9746C349.366 91.6309 346.509 89.2139 343.433 86.7236C342.847 86.2842 342.408 85.625 342.115 84.7461C341.822 83.8672 341.382 83.0615 340.796 82.3291C340.503 81.7432 340.064 81.3037 339.478 81.0107C338.892 80.7178 338.453 80.2783 338.16 79.6924C337.72 79.1064 337.427 78.4473 337.281 77.7148C337.134 76.8359 336.695 76.1768 335.962 75.7373C335.23 75.0049 334.351 74.5654 333.326 74.4189C332.3 74.2725 331.421 73.833 330.689 73.1006C331.128 72.6611 331.348 72.2217 331.348 71.7822C331.202 71.1963 331.128 70.6836 331.128 70.2441C331.128 69.2188 331.568 68.4863 332.447 68.0469C333.326 67.6074 333.765 66.8018 333.765 65.6299C334.351 64.458 334.791 63.7256 335.083 63.4326C336.695 59.4775 338.526 55.6689 340.577 52.0068C342.627 48.3447 344.751 44.6826 346.949 41.0205C347.681 39.8486 348.34 38.75 348.926 37.7246C349.659 36.5527 350.391 35.3809 351.124 34.209C351.563 33.1836 351.929 32.3047 352.222 31.5723C352.662 30.6934 353.248 29.8877 353.98 29.1553C356.031 26.8115 357.715 24.6143 359.034 22.5635C360.499 20.5127 361.597 18.0225 362.33 15.0928C362.476 14.3604 362.769 13.335 363.208 12.0166C363.648 10.6982 364.161 9.37988 364.747 8.06152C365.479 6.74316 366.211 5.57129 366.944 4.5459C367.676 3.52051 368.482 3.00781 369.361 3.00781C370.093 3.00781 371.119 3.30078 372.437 3.88672C373.902 4.47266 375.147 4.91211 376.172 5.20508C377.051 5.49805 377.93 5.79102 378.809 6.08398C379.834 6.23047 380.787 6.30371 381.666 6.30371C382.251 6.30371 382.837 6.15723 383.423 5.86426C384.009 5.4248 384.668 5.20508 385.401 5.20508C386.573 5.20508 387.671 5.4248 388.697 5.86426C389.722 6.15723 390.821 6.37695 391.993 6.52344Z" fill="#F7F6F3"/>
</svg>
