<svg width="699" height="192" viewBox="0 0 699 192" fill="none" xmlns="http://www.w3.org/2000/svg">
<path d="M58.2593 96.5354V103.51H146.009V96.5354C146.009 92.4854 145.634 88.7354 144.884 85.2854C144.284 81.8354 143.459 78.6104 142.409 75.6104L126.884 38.9354C125.234 35.0354 123.509 31.8104 121.709 29.2604C119.909 26.5604 116.909 25.2104 112.709 25.2104H90.6593C86.1593 25.2104 83.0093 26.5604 81.2093 29.2604C79.4093 31.8104 77.7593 34.9604 76.2593 38.7104L61.8593 75.6104C60.8093 78.6104 59.9093 81.8354 59.1593 85.2854C58.5593 88.7354 58.2593 92.4854 58.2593 96.5354ZM94.2593 49.9604C94.8593 48.6104 95.4593 47.6354 96.0593 47.0354C96.8093 46.4354 97.6343 46.1354 98.5343 46.1354H104.159C105.059 46.1354 105.809 46.4354 106.409 47.0354C107.159 47.6354 107.834 48.6104 108.434 49.9604L119.009 84.1604H83.6843L94.2593 49.9604ZM146.009 144.46V105.76H58.2593V144.46H56.0093V96.5354C56.0093 92.3354 56.3093 88.5104 56.9093 85.0604C57.6593 81.4604 58.6343 78.0104 59.8343 74.7104L74.2343 37.8104C75.8843 33.6104 77.7593 30.0854 79.8593 27.2354C81.9593 24.3854 85.5593 22.9604 90.6593 22.9604H112.709C117.659 22.9604 121.109 24.3854 123.059 27.2354C125.159 30.0854 127.109 33.6854 128.909 38.0354L144.434 74.7104C145.634 78.0104 146.534 81.4604 147.134 85.0604C147.884 88.5104 148.259 92.3354 148.259 96.5354V144.46H146.009ZM81.4343 156.61V125.11H121.259V156.61C121.259 159.46 121.934 161.56 123.284 162.91C124.784 164.11 127.034 164.71 130.034 164.71H164.009C166.859 164.71 168.884 164.11 170.084 162.91C171.434 161.56 172.109 159.46 172.109 156.61V97.2104C172.109 92.7104 171.359 87.5354 169.859 81.6854C168.509 75.8354 166.334 69.0104 163.334 61.2104L143.759 10.1354C142.859 7.58544 141.434 5.71044 139.484 4.51045C137.684 3.31044 135.359 2.71044 132.509 2.71044H71.9843C68.9843 2.71044 66.5093 3.31044 64.5593 4.51045C62.7593 5.71044 61.4093 7.58544 60.5093 10.1354L40.9343 61.2104C37.9343 69.0104 35.6843 75.8354 34.1843 81.6854C32.8343 87.5354 32.1593 92.7104 32.1593 97.2104V156.61C32.1593 159.46 32.7593 161.56 33.9593 162.91C35.3093 164.11 37.4093 164.71 40.2593 164.71H73.3343C76.1843 164.71 78.2093 164.11 79.4093 162.91C80.7593 161.56 81.4343 159.46 81.4343 156.61ZM51.2843 189.235C50.6843 189.835 49.7093 190.36 48.3593 190.81C47.1593 191.26 45.8093 191.485 44.3093 191.485H11.2343C7.63428 191.485 5.00928 190.66 3.35928 189.01C1.70928 187.36 0.884278 184.735 0.884278 181.135V121.735C0.884278 117.085 1.55928 111.835 2.90928 105.985C4.40928 99.9854 6.73428 92.9354 9.88428 84.8354L29.2343 33.9854C29.6843 32.6354 30.2093 31.5104 30.8093 30.6104C31.5593 29.5604 32.3093 28.6604 33.0593 27.9104L33.2843 27.6854L62.0843 3.61044C63.2843 2.56044 64.7093 1.81044 66.3593 1.36045C68.0093 0.760446 69.8843 0.460445 71.9843 0.460445H132.509C135.959 0.460445 138.734 1.21044 140.834 2.71044C143.084 4.06044 144.734 6.23544 145.784 9.23544L165.359 60.3104C168.509 68.4104 170.759 75.4604 172.109 81.4604C173.609 87.3104 174.359 92.5604 174.359 97.2104V156.61C174.359 158.56 174.059 160.21 173.459 161.56C173.009 162.91 172.259 164.035 171.209 164.935L141.959 189.235C141.359 189.835 140.384 190.36 139.034 190.81C137.834 191.26 136.484 191.485 134.984 191.485H101.009C97.2593 191.485 94.4843 190.585 92.6843 188.785C90.8843 187.135 89.9843 184.585 89.9843 181.135V151.885H83.6843V156.61C83.6843 158.56 83.3843 160.21 82.7843 161.56C82.3343 162.91 81.5843 164.035 80.5343 164.935L51.2843 189.235ZM297.902 25.2104H248.852V90.2354H297.902C307.202 90.2354 313.427 87.9854 316.577 83.4854C319.727 78.9854 321.302 72.6104 321.302 64.3604V48.6104C321.302 41.7104 319.352 36.0854 315.452 31.7354C311.702 27.3854 305.852 25.2104 297.902 25.2104ZM273.152 43.2104H290.027C293.927 43.2104 296.552 44.2604 297.902 46.3604C299.252 48.3104 299.927 50.7854 299.927 53.7854V61.4354C299.927 64.4354 299.252 66.9854 297.902 69.0854C296.552 71.0354 293.927 72.0104 290.027 72.0104H273.152V43.2104ZM248.852 144.46H246.602V22.9604H297.902C306.602 22.9604 313.052 25.4354 317.252 30.3854C321.452 35.1854 323.552 41.2604 323.552 48.6104V64.1354C323.552 71.0354 322.652 76.7354 320.852 81.2354C319.052 85.5854 315.452 88.5854 310.052 90.2354H312.527C321.677 90.2354 328.502 92.3354 333.002 96.5354C337.502 100.585 339.752 106.51 339.752 114.31V144.46H337.502V114.31C337.502 106.96 335.477 101.485 331.427 97.8854C327.377 94.1354 321.077 92.2604 312.527 92.2604H248.852V144.46ZM265.052 164.71C267.902 164.71 269.927 164.11 271.127 162.91C272.477 161.56 273.152 159.46 273.152 156.61V112.51H304.652C307.802 112.51 309.977 113.335 311.177 114.985C312.527 116.485 313.202 118.885 313.202 122.185V156.61C313.202 159.46 313.802 161.56 315.002 162.91C316.352 164.11 318.452 164.71 321.302 164.71H356.177C359.027 164.71 361.052 164.11 362.252 162.91C363.602 161.56 364.277 159.46 364.277 156.61V108.91C364.277 99.4604 361.727 91.8854 356.627 86.1854C351.677 80.4854 345.152 77.1854 337.052 76.2854C341.702 74.3354 344.927 71.1854 346.727 66.8354C348.677 62.3354 349.652 56.9354 349.652 50.6354V40.2854C349.652 29.1854 346.427 20.1854 339.977 13.2854C333.677 6.23544 322.127 2.71044 305.327 2.71044H230.402C227.552 2.71044 225.452 3.38544 224.102 4.73544C222.902 5.93545 222.302 7.96045 222.302 10.8104V156.61C222.302 159.46 222.902 161.56 224.102 162.91C225.452 164.11 227.552 164.71 230.402 164.71H265.052ZM272.252 164.935L243.002 189.235C242.402 189.835 241.427 190.36 240.077 190.81C238.877 191.26 237.527 191.485 236.027 191.485H201.377C197.777 191.485 195.152 190.66 193.502 189.01C191.852 187.36 191.027 184.735 191.027 181.135V35.3354C191.027 33.3854 191.252 31.7354 191.702 30.3854C192.302 29.0354 193.127 27.9104 194.177 27.0104L223.202 2.48545C223.952 1.88544 224.927 1.43544 226.127 1.13544C227.477 0.685442 228.902 0.460445 230.402 0.460445H305.327C323.177 0.460445 335.402 4.21045 342.002 11.7104C348.602 19.0604 351.902 28.5854 351.902 40.2854V50.6354C351.902 56.1854 351.227 61.0604 349.877 65.2604C348.527 69.3104 346.352 72.6104 343.352 75.1604H343.127C350.177 77.1104 355.802 81.0104 360.002 86.8604C364.352 92.7104 366.527 100.06 366.527 108.91V156.61C366.527 158.56 366.227 160.21 365.627 161.56C365.177 162.91 364.427 164.035 363.377 164.935L334.127 189.235C333.527 189.835 332.552 190.36 331.202 190.81C330.002 191.26 328.652 191.485 327.152 191.485H292.277C288.677 191.485 286.052 190.66 284.402 189.01C282.752 187.36 281.927 184.735 281.927 181.135V146.71C281.927 144.31 281.477 142.51 280.577 141.31C279.677 139.96 278.027 139.285 275.627 139.285H275.402V156.61C275.402 158.56 275.102 160.21 274.502 161.56C274.052 162.91 273.302 164.035 272.252 164.935ZM489.577 191.485H434.677C415.027 191.485 400.477 186.385 391.027 176.185C381.727 165.985 377.077 152.785 377.077 136.585V73.3604C377.077 65.1104 378.277 57.9854 380.677 51.9854C383.077 45.8354 386.602 40.7354 391.252 36.6854L420.502 12.1604C425.152 8.26044 431.077 5.33544 438.277 3.38545C445.477 1.43545 453.952 0.460445 463.702 0.460445H518.602C522.202 0.460445 524.827 1.28544 526.477 2.93544C528.127 4.58545 528.952 7.21045 528.952 10.8104V38.0354C528.952 39.9854 528.652 41.6354 528.052 42.9854C527.602 44.3354 526.852 45.4604 525.802 46.3604L496.552 70.6604C495.952 71.2604 494.977 71.7854 493.627 72.2354C492.427 72.6854 491.077 72.9104 489.577 72.9104H461.902V110.935C461.902 114.085 462.877 116.335 464.827 117.685C466.777 118.885 469.627 119.485 473.377 119.485H518.602C522.202 119.485 524.827 120.31 526.477 121.96C528.127 123.61 528.952 126.235 528.952 129.835V156.61C528.952 158.56 528.652 160.21 528.052 161.56C527.602 162.91 526.852 164.035 525.802 164.935L496.552 189.235C495.952 189.835 494.977 190.36 493.627 190.81C492.427 191.26 491.077 191.485 489.577 191.485ZM518.602 164.71C521.452 164.71 523.477 164.11 524.677 162.91C526.027 161.56 526.702 159.46 526.702 156.61V129.835C526.702 126.985 526.027 124.96 524.677 123.76C523.477 122.41 521.452 121.735 518.602 121.735H473.377C468.727 121.735 465.277 120.91 463.027 119.26C460.777 117.46 459.652 114.685 459.652 110.935V57.3854C459.652 53.6354 460.777 50.8604 463.027 49.0604C465.277 47.1104 468.727 46.1354 473.377 46.1354H518.602C521.452 46.1354 523.477 45.5354 524.677 44.3354C526.027 42.9854 526.702 40.8854 526.702 38.0354V10.8104C526.702 7.96045 526.027 5.93545 524.677 4.73544C523.477 3.38544 521.452 2.71044 518.602 2.71044H463.702C444.952 2.71044 431.002 6.53544 421.852 14.1854C412.852 21.6854 408.352 33.2354 408.352 48.8354V118.81C408.352 134.41 412.852 145.96 421.852 153.46C431.002 160.96 444.952 164.71 463.702 164.71H518.602ZM506.227 142.21V144.46H468.652C454.102 144.46 444.427 142.21 439.627 137.71C434.977 133.21 432.652 125.785 432.652 115.435V52.4354C432.652 41.7854 435.052 34.2104 439.852 29.7104C444.652 25.2104 454.252 22.9604 468.652 22.9604H506.227V25.2104H468.652C455.452 25.2104 446.527 27.3104 441.877 31.5104C437.227 35.5604 434.902 42.5354 434.902 52.4354V115.435C434.902 125.185 437.152 132.085 441.652 136.135C446.152 140.185 455.152 142.21 468.652 142.21H506.227ZM549.549 191.485C545.949 191.485 543.324 190.66 541.674 189.01C540.024 187.36 539.199 184.735 539.199 181.135V154.81C539.199 152.86 539.424 151.21 539.874 149.86C540.474 148.51 541.299 147.385 542.349 146.485L564.849 127.585C556.899 125.185 550.599 121.135 545.949 115.435C541.449 109.585 539.199 101.26 539.199 90.4604V66.8354C539.199 60.0854 540.324 54.0854 542.574 48.8354C544.824 43.5854 548.049 39.1604 552.249 35.5604L581.499 11.0354C585.549 7.73544 590.574 5.18544 596.574 3.38545C602.574 1.43545 609.399 0.460445 617.049 0.460445H680.049C683.649 0.460445 686.274 1.28544 687.924 2.93544C689.574 4.58545 690.399 7.21045 690.399 10.8104V37.5854C690.399 39.5354 690.099 41.1854 689.499 42.5354C689.049 43.8854 688.299 45.0104 687.249 45.9104L666.999 62.7854C676.449 64.8854 684.024 68.8604 689.724 74.7104C695.574 80.4104 698.499 89.3354 698.499 101.485V125.11C698.499 131.86 697.374 137.86 695.124 143.11C692.874 148.36 689.574 152.785 685.224 156.385L656.199 180.685C651.999 184.135 646.899 186.76 640.899 188.56C634.899 190.51 628.149 191.485 620.649 191.485H549.549ZM649.674 164.71C664.074 164.71 675.399 161.335 683.649 154.585C692.049 147.685 696.249 137.86 696.249 125.11V101.485C696.249 88.8854 693.024 79.8854 686.574 74.4854C680.124 69.0854 671.649 65.6354 661.149 64.1354L627.624 59.6354C625.674 59.4854 624.174 58.7354 623.124 57.3854C622.074 56.0354 621.549 54.3854 621.549 52.4354C621.549 50.4854 622.074 48.9104 623.124 47.7104C624.174 46.3604 625.674 45.6854 627.624 45.6854H680.049C682.899 45.6854 684.924 45.0854 686.124 43.8854C687.474 42.5354 688.149 40.4354 688.149 37.5854V10.8104C688.149 7.96045 687.474 5.93545 686.124 4.73544C684.924 3.38544 682.899 2.71044 680.049 2.71044H617.049C602.499 2.71044 591.099 6.16044 582.849 13.0604C574.599 19.8104 570.474 29.5604 570.474 42.3104V65.9354C570.474 78.5354 573.624 87.5354 579.924 92.9354C586.374 98.3354 594.849 101.785 605.349 103.285L639.099 108.01C641.049 108.16 642.474 108.835 643.374 110.035C644.424 111.235 644.949 113.11 644.949 115.66C644.949 117.46 644.424 119.035 643.374 120.385C642.474 121.585 641.049 122.185 639.099 122.185H578.574C575.724 122.185 573.624 122.86 572.274 124.21C571.074 125.41 570.474 127.435 570.474 130.285V156.61C570.474 159.46 571.074 161.56 572.274 162.91C573.624 164.11 575.724 164.71 578.574 164.71H649.674ZM667.899 22.9604V25.2104H617.949C611.649 25.2104 606.624 26.9354 602.874 30.3854C599.124 33.8354 597.249 38.1854 597.249 43.4354V61.8854C597.249 67.1354 598.299 70.8104 600.399 72.9104C602.499 75.0104 605.274 76.3604 608.724 76.9604L656.199 86.6354C660.699 87.5354 664.374 89.4854 667.224 92.4854C670.224 95.4854 671.724 100.885 671.724 108.685V121.735C671.724 128.335 669.474 133.81 664.974 138.16C660.474 142.36 654.399 144.46 646.749 144.46H590.724V142.21H646.749C653.649 142.21 659.124 140.335 663.174 136.585C667.374 132.685 669.474 127.735 669.474 121.735V108.685C669.474 101.635 668.199 96.8354 665.649 94.2854C663.249 91.5854 659.949 89.7854 655.749 88.8854L608.274 79.2104C604.374 78.4604 601.149 76.9604 598.599 74.7104C596.199 72.3104 594.999 68.0354 594.999 61.8854V43.4354C594.999 37.4354 597.099 32.5604 601.299 28.8104C605.499 24.9104 611.049 22.9604 617.949 22.9604H667.899Z" fill="#F7F6F3"/>
</svg>
