<svg width="926" height="145" viewBox="0 0 926 145" fill="none" xmlns="http://www.w3.org/2000/svg">
<path d="M241.136 145H171.611L158.336 120.475H83.4109L69.9109 145H0.610938L92.6359 0.774993H149.111L241.136 145ZM140.336 87.85L120.761 52.075L101.411 87.85H140.336ZM464.767 145H401.992L374.767 109.675H315.592V145H258.892V0.774993H405.592C412.192 0.774993 418.417 1.975 424.267 4.375C430.267 6.625 435.592 9.775 440.242 13.825C444.892 17.875 448.717 22.675 451.717 28.225C454.717 33.775 456.667 39.85 457.567 46.45C458.317 52.3 458.317 58.075 457.567 63.775C456.517 72.325 453.592 80.125 448.792 87.175C443.992 94.075 437.842 99.475 430.342 103.375L464.767 145ZM384.217 70.3C388.417 70.15 391.942 68.65 394.792 65.8C397.642 62.8 399.067 59.275 399.067 55.225C399.067 51.025 397.642 47.5 394.792 44.65C391.942 41.65 388.417 40.15 384.217 40.15H315.592V70.3H384.217ZM697.788 89.2C697.638 90.85 697.488 92.5 697.338 94.15C697.188 95.8 696.963 97.45 696.663 99.1C695.763 105.7 693.813 111.85 690.813 117.55C687.813 123.1 683.988 127.9 679.338 131.95C674.688 136 669.363 139.225 663.363 141.625C657.513 143.875 651.288 145 644.688 145H536.238C529.638 145 523.338 143.875 517.338 141.625C511.488 139.225 506.238 136 501.588 131.95C496.938 127.9 493.113 123.1 490.113 117.55C487.113 111.85 485.163 105.775 484.263 99.325C481.713 81.625 481.713 64 484.263 46.45C485.163 39.85 487.113 33.775 490.113 28.225C493.113 22.675 496.938 17.875 501.588 13.825C506.238 9.775 511.488 6.625 517.338 4.375C523.338 1.975 529.638 0.774993 536.238 0.774993H644.688C651.288 0.774993 657.513 1.975 663.363 4.375C669.363 6.625 674.688 9.775 679.338 13.825C683.988 17.875 687.813 22.675 690.813 28.225C693.813 33.775 695.763 39.85 696.663 46.45C696.963 48.1 697.188 49.75 697.338 51.4C697.488 53.05 697.638 54.7 697.788 56.35H631.413V55.9C630.513 51.25 628.263 47.5 624.663 44.65C621.063 41.65 616.863 40.15 612.062 40.15H562.338C557.538 40.15 553.338 41.65 549.738 44.65C546.138 47.5 543.888 51.25 542.988 55.9C540.738 67.15 540.738 78.475 542.988 89.875C544.038 94.525 546.288 98.35 549.738 101.35C553.338 104.2 557.538 105.625 562.338 105.625H612.062C616.863 105.625 621.063 104.2 624.663 101.35C628.263 98.35 630.513 94.525 631.413 89.875V89.2H697.788ZM874.363 57.7C880.963 57.7 887.338 58.525 893.488 60.175C899.638 61.675 905.038 64.225 909.688 67.825C914.488 71.275 918.238 75.85 920.938 81.55C923.788 87.25 925.213 94.225 925.213 102.475C925.213 110.575 923.788 117.4 920.938 122.95C918.238 128.35 914.488 132.7 909.688 136C905.038 139.3 899.638 141.625 893.488 142.975C887.488 144.325 881.188 145 874.588 145H771.763C765.163 145 758.863 143.875 752.863 141.625C747.013 139.225 741.763 136 737.113 131.95C732.463 127.9 728.638 123.1 725.638 117.55C722.638 111.85 720.688 105.7 719.788 99.1H777.613C779.263 102.55 781.663 105.25 784.813 107.2C787.963 109.15 791.413 110.125 795.163 110.125H826.888C834.538 110.275 842.863 110.35 851.863 110.35C852.913 110.35 854.263 110.275 855.913 110.125C857.563 109.825 859.213 109.3 860.863 108.55C862.513 107.65 863.938 106.45 865.138 104.95C866.338 103.45 866.938 101.5 866.938 99.1C866.938 96.55 866.338 94.6 865.138 93.25C863.938 91.75 862.513 90.625 860.863 89.875C859.213 88.975 857.488 88.45 855.688 88.3C854.038 88 852.763 87.85 851.863 87.85H769.288C762.688 87.85 756.313 87.1 750.163 85.6C744.013 83.95 738.538 81.4 733.738 77.95C729.088 74.35 725.338 69.775 722.488 64.225C719.788 58.525 718.438 51.55 718.438 43.3C718.438 35.05 719.788 28.225 722.488 22.825C725.338 17.275 729.088 12.925 733.738 9.775C738.538 6.475 743.938 4.14999 749.938 2.79999C756.088 1.44999 762.463 0.774993 769.063 0.774993H871.213C877.813 0.774993 884.038 1.975 889.888 4.375C895.888 6.625 901.213 9.775 905.863 13.825C910.513 17.875 914.338 22.675 917.338 28.225C920.338 33.775 922.288 39.85 923.188 46.45L865.363 46.675C863.713 43.225 861.313 40.525 858.163 38.575C855.013 36.475 851.563 35.425 847.813 35.425H791.788C790.738 35.425 789.313 35.575 787.513 35.875C785.863 36.025 784.213 36.55 782.563 37.45C781.063 38.2 779.713 39.325 778.513 40.825C777.313 42.175 776.713 44.125 776.713 46.675C776.713 49.075 777.313 51.025 778.513 52.525C779.713 54.025 781.138 55.15 782.788 55.9C784.438 56.65 786.088 57.175 787.738 57.475C789.538 57.625 790.888 57.7 791.788 57.7H874.363Z" fill="#F7F6F3"/>
</svg>
