<svg width="855" height="181" viewBox="0 0 855 181" fill="none" xmlns="http://www.w3.org/2000/svg">
<path d="M198.139 180.71H90.1387L126.139 126.71H144.139V77.885L72.1387 180.71H0.138672L126.139 0.709958H198.139V180.71ZM342.35 180.71L320.75 144.71H288.35V90.71H360.35V54.71H270.35V180.71H216.35V0.709958H387.35C389 0.709958 391.325 1.08496 394.325 1.83496C397.325 2.43496 400.325 3.63496 403.325 5.43495C406.325 7.23495 408.875 9.63496 410.975 12.635C413.225 15.6349 414.35 19.4599 414.35 24.11V114.785C414.35 118.385 414.05 121.91 413.45 125.36C413 128.66 411.95 131.66 410.3 134.36C408.8 137.06 406.625 139.31 403.775 141.11C400.925 142.76 397.175 143.81 392.525 144.26L414.35 180.71H342.35ZM630.341 180.71H459.341C455.441 180.71 451.841 179.885 448.541 178.235C445.241 176.585 442.391 174.41 439.991 171.71C437.591 168.86 435.716 165.635 434.366 162.035C433.016 158.435 432.341 154.685 432.341 150.785V30.6349C432.341 26.885 433.016 23.21 434.366 19.61C435.716 16.01 437.591 12.86 439.991 10.16C442.391 7.30996 445.241 5.05996 448.541 3.40995C451.841 1.60996 455.441 0.709958 459.341 0.709958H630.341V54.71H486.341V126.71H630.341V180.71ZM854.225 150.785C854.225 154.685 853.55 158.435 852.2 162.035C850.85 165.635 848.975 168.86 846.575 171.71C844.175 174.41 841.325 176.585 838.025 178.235C834.725 179.885 831.125 180.71 827.225 180.71H638.225V126.71H800.225V117.71H638.225V30.6349C638.225 26.885 638.9 23.21 640.25 19.61C641.6 16.01 643.475 12.86 645.875 10.16C648.275 7.30996 651.125 5.05996 654.425 3.40995C657.725 1.60996 661.325 0.709958 665.225 0.709958H854.225V54.71H692.225V63.71H854.225V150.785Z" fill="#F7F6F3"/>
</svg>
