<svg width="749" height="190" viewBox="0 0 749 190" fill="none" xmlns="http://www.w3.org/2000/svg">
<path d="M12.6019 189.695C9.30186 187.445 7.50186 186.32 7.20186 186.32C7.05186 186.32 6.82686 186.47 6.52686 186.77C2.32686 182.57 0.226855 178.895 0.226855 175.745C0.226855 167.495 8.92686 154.895 26.3269 137.945L25.8769 135.695L19.1269 130.97C17.7769 128.87 16.4269 125.12 15.0769 119.72C16.1269 118.67 17.2519 117.32 18.4519 115.67C19.8019 113.87 21.3019 111.77 22.9519 109.37L27.2269 108.02L27.9019 108.245L36.0019 104.87L37.3519 105.32C38.5519 105.32 40.2019 105.245 42.3019 105.095C44.5519 104.795 47.2519 104.495 50.4019 104.195C53.2519 103.895 55.7269 103.745 57.8269 103.745C60.0769 103.595 62.0269 103.595 63.6769 103.745C63.6769 103.745 64.1269 103.745 65.0269 103.745C65.9269 103.595 67.2769 103.445 69.0769 103.295L69.7519 103.745L76.5019 100.595L76.9519 100.82C80.4019 99.9199 86.2519 97.4449 94.5019 93.3949C101.702 89.9449 107.777 87.9199 112.727 87.3199C110.327 89.1199 104.777 91.6699 96.0769 94.9699C88.7269 97.8199 83.6269 101.045 80.7769 104.645L81.9019 106.67L84.8269 104.645C84.8269 105.095 86.0269 105.395 88.4269 105.545C95.9269 106.445 103.427 106.895 110.927 106.895L112.502 108.92C113.252 109.07 114.077 109.22 114.977 109.37C116.027 109.37 117.227 109.37 118.577 109.37C121.127 109.37 123.527 109.445 125.777 109.595C128.027 109.745 129.902 110.195 131.402 110.945L135.452 106.895L135.902 107.345C144.752 100.295 153.002 93.2449 160.652 86.1949C168.452 79.1449 175.652 72.1699 182.252 65.2699V60.0949L180.902 58.7449L181.802 54.4699C181.352 54.1699 181.127 53.4949 181.127 52.4449C181.127 50.1949 181.202 48.6199 181.352 47.7199C181.502 46.8199 181.577 46.7449 181.577 47.4949C181.577 39.6949 181.877 34.9699 182.477 33.3199C184.127 28.9699 188.102 26.7949 194.402 26.7949L196.427 27.6949L197.777 30.6199C197.177 33.3199 196.352 36.1699 195.302 39.1699C194.402 42.0199 193.352 45.0199 192.152 48.1699L193.277 55.1449C202.577 45.0949 210.902 35.5699 218.252 26.5699C225.752 17.4199 232.277 8.86989 237.827 0.919894C238.127 3.46989 236.777 7.36989 233.777 12.6199C230.777 17.8699 225.827 24.2449 218.927 31.7449L192.377 60.9949C194.027 63.3949 194.852 65.9449 194.852 68.6449C194.852 70.4449 194.552 72.1699 193.952 73.8199L195.077 73.5949L198.452 83.0449L198.227 84.3949C198.227 86.9449 199.352 91.3699 201.602 97.6699C204.002 103.97 205.127 108.32 204.977 110.72L207.677 112.52V113.42C207.677 114.77 208.277 115.445 209.477 115.445C211.727 115.445 215.627 114.845 221.177 113.645C223.877 113.045 226.202 112.595 228.152 112.295C230.252 111.995 231.977 111.845 233.327 111.845L234.452 112.07C231.302 114.17 228.152 115.82 225.002 117.02C221.852 118.22 218.777 118.97 215.777 119.27L215.327 118.82L212.852 120.17L213.302 122.87L213.977 122.42L218.927 132.545L218.252 133.895L222.527 138.845L224.327 138.395L224.777 132.77L225.452 133.22C225.902 135.77 228.602 139.52 233.552 144.47L234.002 144.245C238.352 146.045 240.902 147.995 241.652 150.095L237.827 152.12C236.627 151.52 235.127 150.695 233.327 149.645C231.527 148.595 229.427 147.32 227.027 145.82L226.577 146.045C225.077 146.045 223.652 145.145 222.302 143.345C221.702 142.595 221.102 141.92 220.502 141.32C219.902 140.57 219.302 139.82 218.702 139.07V138.395C216.152 136.745 213.602 133.445 211.052 128.495L210.377 129.17L208.577 124.895L207.902 125.12L203.627 119.945L197.777 120.395L197.102 119.945L192.827 120.62C191.177 120.62 179.177 119.72 156.827 117.92L155.927 118.82L146.702 117.245C144.752 116.945 143.027 116.72 141.527 116.57C140.027 116.27 138.677 116.12 137.477 116.12C134.177 116.12 129.152 120.02 122.402 127.82L121.277 127.595L120.152 129.845C118.802 131.495 114.302 134.945 106.652 140.195C102.902 142.595 99.9019 144.545 97.6519 146.045C95.4019 147.545 93.7519 148.52 92.7019 148.97L91.1269 152.57L68.1769 168.995L67.7269 168.77L46.3519 182.045L44.3269 181.82C43.7269 181.82 42.6019 182.72 40.9519 184.52L38.2519 183.395L35.3269 185.645L32.8519 184.52C31.5019 184.52 30.9769 185.345 31.2769 186.995L27.6769 188.795L25.6519 187.22L22.2769 189.02C21.5269 188.87 20.7769 188.72 20.0269 188.57C19.2769 188.57 18.5269 188.57 17.7769 188.57C15.8269 188.57 14.1019 188.945 12.6019 189.695ZM189.677 115.895C191.027 115.895 192.227 115.895 193.277 115.895C194.477 115.745 195.452 115.595 196.202 115.445L196.877 115.895L197.777 115.445H200.027L200.252 114.32L199.577 111.845C198.827 111.845 197.177 109.145 194.627 103.745C192.227 98.3449 190.877 94.7449 190.577 92.9449L189.452 92.4949L189.677 91.8199C189.677 91.2199 189.452 90.3949 189.002 89.3449V88.4449L187.877 87.5449L188.102 86.6449C187.052 85.1449 185.477 81.1699 183.377 74.7199L184.502 72.0199L183.602 69.9949C183.002 70.2949 182.327 70.8199 181.577 71.5699C180.977 72.3199 180.302 73.2199 179.552 74.2699C178.502 75.0199 176.552 76.6699 173.702 79.2199C170.852 81.6199 167.177 84.9949 162.677 89.3449C153.227 98.3449 148.277 103.52 147.827 104.87L145.802 106.22L145.127 105.77L142.202 110.27L142.652 110.945L143.327 110.27C144.377 111.32 145.577 111.695 146.927 111.395L148.502 112.745H148.727C149.477 112.745 150.452 112.37 151.652 111.62L152.102 112.52C153.902 112.52 155.027 112.445 155.477 112.295L155.927 113.87L158.627 112.745L159.752 113.42L164.252 112.97L166.502 114.095L166.952 113.42C167.402 114.17 168.302 114.545 169.652 114.545C170.552 114.545 171.302 114.47 171.902 114.32C172.052 114.92 173.552 115.22 176.402 115.22C177.452 115.22 178.427 115.145 179.327 114.995C180.227 114.695 181.202 114.395 182.252 114.095C183.602 114.395 184.577 114.695 185.177 114.995C185.477 114.845 185.702 114.77 185.852 114.77C186.152 114.77 186.302 114.77 186.302 114.77C186.752 114.77 187.277 114.995 187.877 115.445C188.627 115.745 189.227 115.895 189.677 115.895ZM31.0519 132.545C31.3519 131.345 31.6519 130.52 31.9519 130.07L33.7519 131.42C37.8019 128.72 42.1519 125.27 46.8019 121.07V121.97C53.2519 115.97 57.2269 112.895 58.7269 112.745L58.9519 111.845L58.5019 111.17C58.0519 111.32 57.6769 111.395 57.3769 111.395C57.0769 111.395 56.7769 111.395 56.4769 111.395C56.1769 111.395 55.8019 111.32 55.3519 111.17C55.0519 111.02 54.7519 110.945 54.4519 110.945C53.8519 110.945 52.9519 111.02 51.7519 111.17C50.7019 111.32 49.8769 111.395 49.2769 111.395C46.8769 111.395 45.8269 111.32 46.1269 111.17C45.6769 111.02 45.2269 110.945 44.7769 110.945C43.7269 110.945 42.3019 111.095 40.5019 111.395C38.8519 111.545 36.9019 111.77 34.6519 112.07L33.9769 111.62C33.3769 111.62 32.6269 111.77 31.7269 112.07C30.8269 112.22 30.2269 112.295 29.9269 112.295L29.0269 112.97C28.2769 112.97 25.8019 114.02 21.6019 116.12L21.1519 115.67C20.2519 116.27 19.5769 116.645 19.1269 116.795V120.845C19.4269 120.845 19.6519 120.77 19.8019 120.62C20.1019 120.62 20.6269 121.445 21.3769 123.095C22.1269 124.745 22.8019 125.57 23.4019 125.57C23.5519 125.42 23.7769 125.345 24.0769 125.345V126.02C24.2269 126.02 24.6019 126.02 25.2019 126.02C25.6519 126.02 25.8769 126.245 25.8769 126.695L25.2019 127.145L24.7519 128.045C25.8019 128.195 26.7019 128.795 27.4519 129.845L27.9019 128.72L27.6769 127.82H28.1269C28.5769 128.72 29.1019 129.47 29.7019 130.07L29.4769 130.295C29.4769 131.645 30.0019 132.395 31.0519 132.545ZM13.5019 182.72L15.3019 181.37L18.2269 181.595L18.6769 181.145C18.8269 181.295 18.9769 181.445 19.1269 181.595C19.2769 181.745 19.4269 181.895 19.5769 182.045L19.8019 181.37L20.9269 182.72C21.3769 180.32 22.8769 179.12 25.4269 179.12C26.0269 179.12 26.4019 179.195 26.5519 179.345L28.3519 177.77L29.4769 178.895C30.5269 178.895 32.0269 177.995 33.9769 176.195L36.6769 177.77L38.0269 177.095L38.7019 174.62L39.1519 174.845L56.0269 164.72C63.0769 160.52 68.8519 157.595 73.3519 155.945C75.6019 153.245 83.5519 147.32 97.2019 138.17C103.802 133.82 108.902 130.22 112.502 127.37C116.252 124.52 118.502 122.345 119.252 120.845L120.827 120.395C121.277 119.795 121.727 119.195 122.177 118.595C122.777 117.845 123.377 117.02 123.977 116.12L123.752 115.445C122.852 115.595 121.802 115.67 120.602 115.67C119.402 115.67 117.977 115.67 116.327 115.67C110.777 115.67 105.977 115.07 101.927 113.87L101.027 114.32C98.3269 113.27 93.9769 112.745 87.9769 112.745C84.8269 112.595 82.1269 112.445 79.8769 112.295C77.6269 112.145 75.9019 111.92 74.7019 111.62L74.2519 112.52L65.9269 111.395C63.5269 112.895 61.1269 114.47 58.7269 116.12C56.3269 117.62 53.8519 119.195 51.3019 120.845L45.0019 126.47C44.1019 126.62 42.7519 127.595 40.9519 129.395C39.3019 131.195 38.2519 132.62 37.8019 133.67L38.2519 135.47L40.2769 134.57C41.6269 135.77 43.5019 137.42 45.9019 139.52L48.1519 138.845L48.3769 139.52C49.2769 139.52 50.0269 139.745 50.6269 140.195L53.5519 139.52L54.9019 141.095L54.0019 141.995L52.4269 142.22L50.8519 143.345L48.8269 141.77L48.1519 141.995C46.8019 141.995 45.0769 141.47 42.9769 140.42L41.6269 141.32L39.6019 140.42L39.1519 141.32C38.8519 141.17 38.5519 140.87 38.2519 140.42C38.1019 139.97 37.8769 139.52 37.5769 139.07L35.1019 139.97L34.8769 139.07L32.1769 139.745L31.0519 138.62C15.0019 156.77 6.97686 168.845 6.97686 174.845C6.97686 179.345 9.15186 181.97 13.5019 182.72ZM220.301 179.795C219.551 179.345 218.726 178.82 217.826 178.22C216.776 177.62 216.251 176.945 216.251 176.195C216.401 176.045 216.701 175.145 217.151 173.495L220.076 173.945C220.226 173.945 220.301 173.87 220.301 173.72C220.301 173.72 220.451 173.645 220.751 173.495C221.651 174.545 222.701 175.07 223.901 175.07C224.201 175.07 224.276 174.995 224.126 174.845C224.426 174.695 225.026 174.62 225.926 174.62C226.076 174.62 226.376 174.47 226.826 174.17C227.276 174.02 227.801 173.645 228.401 173.045L229.526 171.92L232.001 169.67L237.176 164.495C237.626 164.045 238.076 163.82 238.526 163.82C238.526 163.52 238.826 162.77 239.426 161.57C239.576 161.42 239.726 161.27 239.876 161.12C240.026 160.97 240.251 160.82 240.551 160.67L244.376 156.17C244.526 156.02 244.751 155.645 245.051 155.045C245.501 154.595 246.101 153.995 246.851 153.245C247.001 152.945 247.226 152.57 247.526 152.12C247.826 151.67 248.126 151.145 248.426 150.545L250.676 148.295C250.826 148.295 250.976 147.77 251.126 146.72L252.026 146.045C252.626 145.295 252.926 144.62 252.926 144.02C253.526 143.42 254.126 142.67 254.726 141.77C255.476 140.87 256.301 139.895 257.201 138.845L259.676 134.345L260.126 134.795C260.726 133.445 261.401 132.17 262.151 130.97C262.751 130.67 263.126 130.22 263.276 129.62C263.426 129.47 263.651 129.17 263.951 128.72C264.251 128.27 264.626 127.37 265.076 126.02C266.126 125.42 266.576 125.12 266.426 125.12H266.651C266.501 125.27 266.576 125.345 266.876 125.345C267.176 124.895 267.401 124.52 267.551 124.22C267.701 123.92 268.151 123.17 268.901 121.97C269.801 120.62 271.301 118.445 273.401 115.445C273.851 114.695 274.076 114.02 274.076 113.42C274.676 113.12 275.201 112.745 275.651 112.295V111.845C275.651 110.645 276.701 109.52 278.801 108.47C279.101 107.72 279.176 107.345 279.026 107.345C279.626 106.595 280.226 105.695 280.826 104.645C281.576 103.595 282.476 102.47 283.526 101.27C283.826 100.97 283.826 100.745 283.526 100.595C283.976 99.8449 284.201 98.7949 284.201 97.4449C284.201 96.3949 283.676 95.8699 282.626 95.8699C282.626 95.8699 282.401 95.9449 281.951 96.0949C281.501 95.3449 280.376 94.5949 278.576 93.8449C276.776 93.0949 275.576 92.7199 274.976 92.7199C274.826 92.7199 274.676 92.7949 274.526 92.9449H274.301C274.151 92.9449 274.076 92.8699 274.076 92.7199L273.176 92.9449C273.326 92.3449 273.176 92.0449 272.726 92.0449C271.826 92.0449 271.301 91.9699 271.151 91.8199L270.476 92.7199C270.476 92.5699 270.551 92.4199 270.701 92.2699L270.251 91.8199C269.801 91.6699 269.426 91.5949 269.126 91.5949C268.826 91.5949 268.601 91.6699 268.451 91.8199C268.301 91.6699 268.076 91.5949 267.776 91.5949C266.876 91.8949 266.576 92.0449 266.876 92.0449C265.226 92.0449 264.476 91.9699 264.626 91.8199V90.9199H265.526C266.726 90.0199 267.776 89.6449 268.676 89.7949C268.826 89.6449 269.051 89.5699 269.351 89.5699C269.501 89.5699 269.576 89.6449 269.576 89.7949C269.726 89.9449 269.951 90.0199 270.251 90.0199C270.551 90.0199 271.151 89.8699 272.051 89.5699C271.901 90.1699 271.976 90.4699 272.276 90.4699C272.576 90.4699 272.876 90.3949 273.176 90.2449C273.626 90.0949 273.926 90.0199 274.076 90.0199C274.226 90.0199 274.451 90.1699 274.751 90.4699C275.201 90.7699 275.576 90.9199 275.876 90.9199L276.551 90.4699C276.551 90.4699 276.776 90.6199 277.226 90.9199C277.826 91.0699 278.651 91.4449 279.701 92.0449C280.001 92.1949 280.376 92.4199 280.826 92.7199C281.426 93.0199 282.251 93.3199 283.301 93.6199C283.601 93.9199 283.751 94.0699 283.751 94.0699C284.351 94.0699 284.876 93.8449 285.326 93.3949C285.776 92.7949 286.001 92.1949 286.001 91.5949V91.1449C285.851 90.9949 285.776 90.8449 285.776 90.6949C285.926 90.6949 286.751 89.1199 288.251 85.9699V85.5199C288.251 85.0699 288.326 84.6199 288.476 84.1699C288.776 83.7199 289.001 83.1949 289.151 82.5949C289.151 82.4449 289.001 82.2199 288.701 81.9199C289.151 81.0199 289.601 79.2949 290.051 76.7449L291.176 74.2699V72.6949L291.851 69.7699L292.751 68.4199C292.601 68.2699 292.526 67.8949 292.526 67.2949C292.526 66.5449 292.676 65.9449 292.976 65.4949V64.3699C293.126 64.0699 293.276 63.7699 293.426 63.4699C293.576 63.1699 293.726 62.7949 293.876 62.3449V60.5449L294.551 58.2949C294.401 58.1449 294.326 57.7699 294.326 57.1699C294.326 56.5699 294.401 55.5199 294.551 54.0199C294.851 52.5199 295.001 51.6949 295.001 51.5449L294.776 47.2699C294.626 46.3699 294.626 45.8449 294.776 45.6949C294.626 45.3949 294.551 44.9449 294.551 44.3449C294.551 43.7449 294.476 43.1449 294.326 42.5449L294.776 41.8699C294.176 41.5699 293.801 39.7699 293.651 36.4699C293.351 36.1699 292.901 35.7949 292.301 35.3449C291.851 34.8949 291.626 34.5949 291.626 34.4449C291.626 33.8449 292.076 33.4699 292.976 33.3199C293.126 33.3199 293.276 33.4699 293.426 33.7699C293.726 34.0699 293.951 34.2199 294.101 34.2199C294.401 34.2199 294.626 34.1449 294.776 33.9949C295.226 34.5949 295.676 35.6449 296.126 37.1449L297.251 45.6949C297.251 45.8449 297.176 46.1449 297.026 46.5949C296.876 47.0449 296.801 47.4199 296.801 47.7199C296.801 48.1699 296.951 48.8449 297.251 49.7449C297.551 50.4949 297.701 50.9449 297.701 51.0949C297.701 51.0949 297.551 51.3949 297.251 51.9949C297.101 52.4449 296.876 53.4199 296.576 54.9199C296.876 54.9199 297.326 55.2199 297.926 55.8199C297.626 56.1199 297.476 56.3449 297.476 56.4949C297.476 56.9449 297.701 57.5449 298.151 58.2949C298.151 58.4449 298.076 58.5949 297.926 58.7449L298.376 61.6699C298.376 61.9699 298.301 62.4199 298.151 63.0199C298.151 63.6199 298.001 64.3699 297.701 65.2699V66.1699C297.701 66.7699 297.626 67.1449 297.476 67.2949C297.326 67.4449 297.251 67.4449 297.251 67.2949C297.251 67.4449 297.251 67.7449 297.251 68.1949C297.251 68.4949 297.326 68.9449 297.476 69.5449V71.7949C297.476 72.5449 297.251 73.1449 296.801 73.5949C296.801 74.3449 296.876 74.9449 297.026 75.3949H296.801C296.651 75.3949 296.576 75.9949 296.576 77.1949C296.576 78.0949 296.651 78.6199 296.801 78.7699C296.351 79.3699 296.126 80.1949 296.126 81.2449L296.801 83.9449L299.051 80.3449C300.401 78.0949 301.526 76.9699 302.426 76.9699C302.576 77.1199 302.726 77.1949 302.876 77.1949C303.626 76.1449 304.001 75.5449 304.001 75.3949C304.151 75.3949 304.226 75.4699 304.226 75.6199C304.676 74.8699 304.976 74.4949 305.126 74.4949C305.426 74.4949 305.651 74.3449 305.801 74.0449C306.101 73.7449 306.101 73.5199 305.801 73.3699C307.001 72.4699 307.976 71.4199 308.726 70.2199H309.401C310.301 69.3199 311.351 68.0449 312.551 66.3949C312.851 66.5449 313.076 66.6199 313.226 66.6199C313.076 66.6199 313.301 66.3949 313.901 65.9449C315.251 65.9449 316.001 65.2699 316.151 63.9199C316.451 62.5699 316.601 61.8949 316.601 61.8949C316.901 61.8949 317.126 61.9699 317.276 62.1199C318.626 60.0199 320.351 58.5199 322.451 57.6199C322.751 57.3199 323.201 56.8699 323.801 56.2699C324.401 55.5199 326.351 53.9449 329.651 51.5449C330.101 51.5449 330.551 51.3199 331.001 50.8699C331.451 50.2699 331.826 49.9699 332.126 49.9699C331.976 49.9699 332.051 50.1199 332.351 50.4199C332.501 50.1199 332.876 49.7449 333.476 49.2949C334.076 48.8449 335.126 48.0199 336.626 46.8199C336.776 46.5199 337.001 46.2949 337.301 46.1449C337.601 45.8449 337.901 45.5449 338.201 45.2449C340.151 44.6449 341.351 43.9699 341.801 43.2199C341.951 43.0699 342.251 42.9949 342.701 42.9949H342.926C342.776 43.1449 342.776 43.2199 342.926 43.2199L344.276 41.8699C344.576 41.4199 344.876 41.1949 345.176 41.1949H345.626C345.626 41.3449 345.701 41.4199 345.851 41.4199C346.001 41.4199 346.451 41.1199 347.201 40.5199C347.951 39.9199 348.401 39.6199 348.551 39.6199H349.001C349.751 39.3199 350.276 39.1699 350.576 39.1699C351.026 39.0199 351.926 38.4199 353.276 37.3699C353.426 37.3699 353.726 37.2199 354.176 36.9199C354.776 36.4699 355.151 36.2449 355.301 36.2449C355.451 36.2449 355.451 36.3199 355.301 36.4699C355.301 36.6199 355.376 36.6949 355.526 36.6949C355.676 36.6949 356.276 36.3199 357.326 35.5699C358.526 34.8199 359.201 34.4449 359.351 34.4449C359.651 34.4449 359.726 34.5199 359.576 34.6699C359.426 34.8199 359.426 34.8949 359.576 34.8949C359.726 34.8949 359.951 34.7449 360.251 34.4449C360.101 34.4449 360.026 34.4449 360.026 34.4449C360.026 34.2949 360.026 34.2199 360.026 34.2199C360.026 34.2199 360.176 34.2199 360.476 34.2199C360.926 34.0699 361.526 33.9949 362.276 33.9949C362.576 33.9949 362.801 34.0699 362.951 34.2199V33.7699C363.251 33.6199 364.076 33.1699 365.426 32.4199H366.101C366.401 32.4199 366.926 32.3449 367.676 32.1949C368.576 31.8949 369.776 31.4449 371.276 30.8449L371.726 31.2949C372.176 30.6949 372.476 30.3949 372.626 30.3949L377.576 30.8449C377.726 30.8449 377.726 30.7699 377.576 30.6199C377.576 30.4699 377.651 30.3949 377.801 30.3949H378.476C378.626 30.3949 379.226 30.3199 380.276 30.1699C381.326 29.8699 382.226 29.7199 382.976 29.7199L386.351 30.3949C386.651 30.3949 387.026 30.1699 387.476 29.7199L388.826 30.1699L389.051 30.3949H389.726C389.726 30.3949 390.026 30.5449 390.626 30.8449C391.226 31.1449 391.601 31.2949 391.751 31.2949C391.901 31.2949 392.126 31.1449 392.426 30.8449L392.876 31.2949C394.676 31.8949 395.801 32.1949 396.251 32.1949C396.701 32.7949 397.076 33.0949 397.376 33.0949H397.601C397.601 32.9449 397.676 32.8699 397.826 32.8699C397.976 32.8699 399.326 33.6949 401.876 35.3449C403.526 36.5449 404.276 37.1449 404.126 37.1449L407.726 41.1949C408.026 41.3449 408.476 41.4199 409.076 41.4199L411.326 46.1449C411.326 47.3449 411.551 48.3949 412.001 49.2949V49.5199C412.001 50.4199 412.301 51.4699 412.901 52.6699C411.851 53.2699 411.476 53.6449 411.776 53.7949C412.076 54.8449 412.076 56.6449 411.776 59.1949C411.626 59.6449 411.326 60.7699 410.876 62.5699C410.426 64.3699 409.676 66.7699 408.626 69.7699L405.026 76.5199C404.726 76.9699 404.351 77.4949 403.901 78.0949C403.451 78.6949 402.776 79.5199 401.876 80.5699L401.201 82.3699C400.601 82.5199 399.401 83.9449 397.601 86.6449C397.001 86.9449 396.476 87.3199 396.026 87.7699C396.026 88.0699 395.801 88.5199 395.351 89.1199C394.901 89.5699 394.526 89.9449 394.226 90.2449L387.476 97.2199C387.176 97.2199 386.951 97.2949 386.801 97.4449C386.051 98.4949 385.001 99.3949 383.651 100.145C383.651 100.445 383.351 100.895 382.751 101.495C382.301 102.095 381.251 102.845 379.601 103.745H379.376V104.645C378.476 105.245 376.901 106.145 374.651 107.345C374.651 107.345 374.501 107.495 374.201 107.795C373.901 107.945 373.226 108.545 372.176 109.595L366.326 112.52C364.976 113.12 364.301 113.645 364.301 114.095C364.301 113.945 364.151 113.87 363.851 113.87C363.701 113.87 362.801 114.32 361.151 115.22C359.501 116.12 358.601 116.57 358.451 116.57C358.601 116.42 358.451 116.27 358.001 116.12L357.551 116.795H357.326C357.176 116.795 356.801 116.945 356.201 117.245L355.751 117.47C355.601 117.47 355.526 117.395 355.526 117.245C355.526 117.095 355.451 117.02 355.301 117.02L352.826 118.37C352.676 118.37 352.526 118.295 352.376 118.145C352.376 117.995 352.301 117.92 352.151 117.92C352.001 117.92 351.701 118.145 351.251 118.595C350.801 118.895 350.426 119.045 350.126 119.045H349.901C349.901 118.895 349.826 118.82 349.676 118.82C349.376 118.82 348.476 119.345 346.976 120.395C346.226 120.395 345.626 120.47 345.176 120.62C345.176 120.77 344.951 120.995 344.501 121.295L344.276 120.845L343.826 121.295C343.526 121.295 343.451 121.22 343.601 121.07H343.376C341.576 121.07 340.676 121.895 340.676 123.545C340.676 124.445 341.051 125.045 341.801 125.345C342.701 125.645 344.276 126.47 346.526 127.82L347.426 128.72C347.726 128.72 348.026 128.57 348.326 128.27C348.326 128.42 348.776 128.72 349.676 129.17V129.845H349.901C350.051 129.845 350.126 129.77 350.126 129.62C350.276 129.77 350.501 129.92 350.801 130.07C351.101 130.22 351.401 130.445 351.701 130.745C352.001 130.745 352.301 130.82 352.601 130.97C353.051 130.97 353.501 131.045 353.951 131.195C354.401 131.645 355.751 132.32 358.001 133.22C358.001 133.22 358.226 133.295 358.676 133.445C359.126 133.595 360.026 134.12 361.376 135.02C361.676 135.02 361.901 134.795 362.051 134.345C362.501 134.945 363.176 135.395 364.076 135.695L364.976 136.595H365.426C365.576 136.595 366.101 136.895 367.001 137.495C367.901 138.095 368.426 138.395 368.576 138.395C368.876 138.395 369.101 138.32 369.251 138.17H369.701L370.601 139.07C371.201 139.07 372.176 139.295 373.526 139.745L375.551 141.095L378.251 141.77L378.701 142.22C379.001 142.22 379.301 142.145 379.601 141.995H380.501C380.651 141.995 380.876 142.145 381.176 142.445C381.626 142.745 381.926 142.895 382.076 142.895H382.301C382.301 142.745 382.301 142.67 382.301 142.67H382.526C382.376 142.67 382.301 142.67 382.301 142.67C382.451 142.97 383.051 143.345 384.101 143.795L384.776 143.345C384.626 143.795 384.626 144.02 384.776 144.02C384.926 144.02 385.001 143.945 385.001 143.795H385.226C385.376 143.795 385.676 143.945 386.126 144.245C386.576 144.545 386.876 144.695 387.026 144.695C387.176 144.695 387.251 144.62 387.251 144.47C387.251 144.32 387.401 144.245 387.701 144.245C387.851 144.245 387.926 144.32 387.926 144.47H388.151C388.151 144.47 388.601 144.32 389.501 144.02L390.176 144.695L390.626 144.245C390.626 144.395 390.701 144.47 390.851 144.47C390.851 144.47 391.226 144.395 391.976 144.245C392.276 143.645 392.426 143.27 392.426 143.12C392.576 143.27 392.876 143.345 393.326 143.345C394.076 142.145 394.451 141.47 394.451 141.32C394.451 141.17 394.301 140.645 394.001 139.745C393.251 138.095 392.426 137.045 391.526 136.595C390.776 135.995 390.401 135.62 390.401 135.47C390.551 135.47 391.001 135.32 391.751 135.02L394.901 137.045C394.901 137.345 395.426 138.245 396.476 139.745C397.526 141.095 398.051 143.045 398.051 145.595C397.901 145.595 397.226 146.87 396.026 149.42C395.576 149.57 394.901 150.245 394.001 151.445C393.251 151.445 392.801 151.97 392.651 153.02H391.301C391.151 153.02 390.776 152.87 390.176 152.57C389.726 152.27 389.351 152.12 389.051 152.12L387.926 152.57C387.926 152.72 387.326 152.795 386.126 152.795C385.976 152.795 385.826 152.645 385.676 152.345C385.676 152.045 385.601 151.895 385.451 151.895C385.451 152.045 385.226 152.195 384.776 152.345C384.776 151.595 384.476 151.22 383.876 151.22H383.426C383.426 151.37 383.351 151.445 383.201 151.445C383.351 151.445 383.051 151.22 382.301 150.77C381.851 151.22 381.476 151.445 381.176 151.445C380.126 151.445 379.451 150.995 379.151 150.095C378.851 150.095 378.401 150.02 377.801 149.87C377.351 149.87 376.826 149.795 376.226 149.645C375.176 149.345 374.501 149.12 374.201 148.97C373.901 148.67 373.676 148.52 373.526 148.52H373.076C373.076 148.67 373.001 148.745 372.851 148.745C372.701 148.745 372.101 148.22 371.051 147.17C370.901 147.02 370.676 146.795 370.376 146.495C370.076 146.195 369.626 145.895 369.026 145.595L367.901 143.795C367.601 143.795 367.376 144.095 367.226 144.695H365.876C365.276 144.695 364.826 144.47 364.526 144.02C364.226 143.57 363.926 143.12 363.626 142.67H363.176C362.726 142.67 361.751 142.295 360.251 141.545C360.101 140.345 359.726 139.595 359.126 139.295L357.326 140.87L353.951 138.845C353.351 138.245 352.301 137.57 350.801 136.82C350.801 136.22 350.576 135.92 350.126 135.92H349.676C349.826 136.07 349.826 136.145 349.676 136.145C349.676 136.145 349.601 136.145 349.451 136.145H349.676C349.676 136.145 349.676 136.07 349.676 135.92C349.526 135.92 349.076 135.77 348.326 135.47C347.576 134.72 347.051 134.42 346.751 134.57L346.526 134.12L346.076 134.57C345.026 132.02 343.001 130.67 340.001 130.52C340.001 130.22 340.076 130.07 340.226 130.07C339.026 128.87 338.351 128.27 338.201 128.27C337.901 128.27 337.751 128.345 337.751 128.495H337.526C337.526 128.495 335.351 127.22 331.001 124.67C330.251 124.07 329.951 123.77 330.101 123.77H329.651C329.651 123.92 329.576 123.995 329.426 123.995C329.276 123.995 329.201 123.92 329.201 123.77C329.201 123.62 329.126 123.545 328.976 123.545L324.926 124.22C324.176 124.22 322.751 123.995 320.651 123.545C320.351 123.545 320.126 123.62 319.976 123.77C319.376 123.77 318.701 123.77 317.951 123.77C317.201 123.77 316.301 123.695 315.251 123.545C314.951 123.545 314.351 123.47 313.451 123.32C312.701 123.02 312.251 122.87 312.101 122.87H311.876C311.876 123.02 311.801 123.095 311.651 123.095C311.501 123.095 311.126 122.945 310.526 122.645C309.926 122.345 309.551 122.195 309.401 122.195C309.251 122.195 309.101 122.27 308.951 122.42C308.951 122.57 308.876 122.645 308.726 122.645C308.426 122.645 307.976 122.12 307.376 121.07C307.076 121.22 306.851 121.37 306.701 121.52C306.551 121.52 306.476 121.52 306.476 121.52C306.326 121.52 305.951 121.37 305.351 121.07C304.751 120.77 304.451 120.62 304.451 120.62C304.151 120.62 304.001 120.695 304.001 120.845H303.776C303.626 120.845 303.476 120.77 303.326 120.62C303.176 120.47 303.026 120.395 302.876 120.395H302.426C302.276 120.395 301.151 119.945 299.051 119.045C298.601 118.895 297.851 117.92 296.801 116.12C296.951 116.12 297.026 115.97 297.026 115.67L298.826 116.57L299.501 117.245C299.951 117.395 300.476 117.695 301.076 118.145C301.826 118.445 302.726 118.745 303.776 119.045C304.526 119.045 305.726 118.97 307.376 118.82C309.026 118.52 310.001 118.37 310.301 118.37L314.351 118.82C315.701 118.97 316.676 119.045 317.276 119.045C318.026 119.045 318.476 119.045 318.626 119.045C319.076 119.045 319.526 118.67 319.976 117.92C319.826 117.32 319.526 116.945 319.076 116.795L318.626 117.245L312.776 112.97H312.326C311.876 112.97 311.351 112.67 310.751 112.07C310.151 111.47 308.801 110.57 306.701 109.37L304.676 107.12C304.526 107.27 304.451 107.42 304.451 107.57C304.001 107.57 303.701 107.27 303.551 106.67H303.326C303.326 106.82 303.251 106.895 303.101 106.895C302.501 106.895 301.901 106.445 301.301 105.545C300.701 104.495 300.401 104.12 300.401 104.42C299.951 104.57 299.651 104.72 299.501 104.87C299.651 104.87 299.501 104.795 299.051 104.645C298.601 104.345 298.001 104.12 297.251 103.97C295.751 103.07 295.001 102.545 295.001 102.395C295.001 102.395 295.001 102.545 295.001 102.845C294.551 102.845 294.101 102.47 293.651 101.72C293.501 101.72 293.126 101.57 292.526 101.27C292.076 100.97 291.776 100.82 291.626 100.82C291.326 100.82 291.026 101.045 290.726 101.495V102.62C289.826 105.77 289.376 107.195 289.376 106.895L288.251 108.02V109.145C288.101 109.745 287.576 110.495 286.676 111.395C286.976 111.695 286.976 112.295 286.676 113.195H285.776C285.626 113.345 285.401 113.87 285.101 114.77V117.695C284.801 117.695 284.576 117.77 284.426 117.92C284.276 117.92 284.201 118.295 284.201 119.045C284.201 119.195 284.051 119.495 283.751 119.945C283.601 120.395 283.526 120.695 283.526 120.845C282.776 121.445 282.476 122.12 282.626 122.87L281.951 123.545C281.951 125.345 281.426 126.47 280.376 126.92C280.376 127.97 280.226 128.495 279.926 128.495C279.626 128.345 279.476 128.27 279.476 128.27C279.476 128.42 279.476 128.795 279.476 129.395C279.476 129.995 279.176 130.595 278.576 131.195C278.126 131.795 277.901 132.17 277.901 132.32L277.226 135.695C276.626 136.145 275.951 137.72 275.201 140.42C274.601 141.32 274.076 141.995 273.626 142.445C273.776 142.445 273.776 142.445 273.626 142.445C273.626 142.295 273.476 142.145 273.176 141.995C272.876 142.595 272.726 143.345 272.726 144.245C272.276 144.545 271.826 144.995 271.376 145.595C270.926 146.195 270.401 147.095 269.801 148.295C269.801 148.295 269.576 148.595 269.126 149.195C268.676 149.645 268.526 150.02 268.676 150.32C268.376 150.47 268.076 150.92 267.776 151.67C267.176 151.82 266.951 152.27 267.101 153.02L266.426 153.47C266.276 154.52 265.826 155.27 265.076 155.72C265.076 155.42 264.701 156.245 263.951 158.195C261.701 158.645 260.576 159.995 260.576 162.245C260.576 162.395 259.901 162.995 258.551 164.045C258.551 164.045 258.476 163.97 258.326 163.82C258.176 163.82 257.951 163.745 257.651 163.595L256.076 165.845C256.076 166.145 255.926 166.37 255.626 166.52C255.326 166.82 255.101 167.12 254.951 167.42L251.576 171.02C250.826 171.47 249.926 172.145 248.876 173.045C247.826 173.945 246.251 174.845 244.151 175.745C244.001 176.345 243.551 176.645 242.801 176.645C242.801 176.645 242.726 176.57 242.576 176.42L242.126 177.095C240.176 177.995 239.351 178.445 239.651 178.445C239.501 178.445 239.426 178.37 239.426 178.22C239.276 178.22 239.126 178.22 238.976 178.22C238.976 178.37 238.976 178.445 238.976 178.445C238.976 178.595 238.901 178.595 238.751 178.445C238.601 178.295 238.451 178.22 238.301 178.22L235.601 178.895C235.451 178.895 235.301 178.895 235.151 178.895H235.601C235.601 178.745 235.151 178.52 234.251 178.22H232.676L229.976 178.67C229.826 178.67 229.751 178.595 229.751 178.445C229.751 178.445 229.451 178.37 228.851 178.22C228.551 178.22 228.101 178.07 227.501 177.77C226.901 178.22 226.676 178.445 226.826 178.445C225.476 177.995 224.876 177.77 225.026 177.77C224.876 177.77 224.801 177.92 224.801 178.22C224.651 178.52 224.501 178.67 224.351 178.67C223.751 178.67 223.526 178.595 223.676 178.445C223.076 178.445 221.951 178.895 220.301 179.795ZM322.001 113.87C322.301 113.57 322.976 114.095 324.026 115.445C325.226 116.795 326.576 117.545 328.076 117.695C328.076 117.545 328.826 117.395 330.326 117.245C330.926 117.245 331.601 117.17 332.351 117.02C333.251 116.72 334.301 116.42 335.501 116.12C335.201 116.42 335.501 116.42 336.401 116.12C338.501 115.07 339.776 114.545 340.226 114.545H340.451C340.451 114.695 340.526 114.77 340.676 114.77C340.826 114.77 340.826 114.695 340.676 114.545C340.676 114.395 340.826 114.32 341.126 114.32H341.351C341.351 114.47 341.426 114.545 341.576 114.545C341.726 114.545 341.876 114.47 342.026 114.32C342.176 114.02 342.326 113.87 342.476 113.87H342.701C342.701 114.02 342.776 114.095 342.926 114.095C343.076 114.095 343.451 113.72 344.051 112.97C344.801 112.07 345.326 111.62 345.626 111.62C345.776 111.62 345.776 111.695 345.626 111.845H345.851C346.301 111.845 346.676 111.77 346.976 111.62C347.426 111.32 348.701 111.02 350.801 110.72L352.151 108.92C352.301 109.07 352.601 109.145 353.051 109.145C353.201 109.145 353.576 108.995 354.176 108.695C354.926 108.245 355.376 108.02 355.526 108.02L355.976 108.245C356.426 107.945 357.101 107.42 358.001 106.67C358.901 105.92 359.501 105.695 359.801 105.995C362.051 104.645 363.101 103.97 362.951 103.97L363.176 103.745L362.951 103.97H363.176C363.326 103.97 363.476 103.895 363.626 103.745H363.851C364.751 103.745 365.426 103.445 365.876 102.845C366.326 102.095 366.926 101.12 367.676 99.9199C367.976 99.7699 368.201 99.6949 368.351 99.6949C368.501 99.5449 368.576 99.4699 368.576 99.4699C368.876 99.4699 369.176 99.6199 369.476 99.9199L371.501 98.3449C371.501 98.4949 371.651 98.5699 371.951 98.5699C372.251 98.5699 372.626 98.1199 373.076 97.2199H374.426L376.676 94.5199C377.126 94.2199 377.501 93.9199 377.801 93.6199C378.101 93.3199 378.401 92.7949 378.701 92.0449H378.926C379.676 92.0449 380.501 91.4449 381.401 90.2449H382.751V88.6699C383.351 88.5199 383.951 88.5199 384.551 88.6699L385.226 86.8699C385.526 86.8699 385.751 86.9449 385.901 87.0949L387.476 85.2949L388.826 82.8199C389.126 82.8199 389.426 82.8199 389.726 82.8199C390.026 82.6699 390.476 82.5199 391.076 82.3699C391.076 81.1699 391.151 80.6449 391.301 80.7949C391.601 80.9449 392.126 80.2699 392.876 78.7699L393.551 77.4199C394.301 77.4199 394.901 77.3449 395.351 77.1949L396.476 75.6199L395.576 74.9449C395.726 74.6449 395.876 74.2699 396.026 73.8199C396.176 73.3699 396.476 73.1449 396.926 73.1449C397.076 73.1449 397.151 73.2199 397.151 73.3699H397.601C398.051 73.3699 398.426 73.2199 398.726 72.9199C398.876 72.0199 399.026 71.4949 399.176 71.3449C399.026 71.1949 398.876 71.0449 398.726 70.8949C398.576 70.5949 398.501 70.3699 398.501 70.2199L401.426 67.2949L402.101 67.7449C403.151 64.7449 404.351 62.3449 405.701 60.5449H407.051L408.176 56.2699C408.026 55.9699 407.951 55.4449 407.951 54.6949C408.101 54.5449 408.176 54.2449 408.176 53.7949C408.326 53.1949 408.476 52.1449 408.626 50.6449L408.401 49.0699C408.251 48.3199 408.026 47.5699 407.726 46.8199C407.576 46.0699 407.126 45.2449 406.376 44.3449C406.076 42.2449 403.751 39.5449 399.401 36.2449L397.376 35.5699L396.701 34.8949L393.101 33.7699L392.651 33.0949C392.351 33.2449 391.676 33.1699 390.626 32.8699L390.401 33.3199C390.101 33.0199 389.876 32.8699 389.726 32.8699C389.576 32.8699 389.426 32.9449 389.276 33.0949H388.826L385.451 32.1949C385.301 32.1949 385.226 32.2699 385.226 32.4199C385.226 32.5699 385.151 32.6449 385.001 32.6449C384.851 32.6449 384.626 32.5699 384.326 32.4199C384.026 32.2699 383.801 32.1949 383.651 32.1949H380.276C380.126 32.1949 379.601 32.2699 378.701 32.4199C377.801 32.5699 377.201 32.6449 376.901 32.6449C376.751 32.6449 376.526 32.5699 376.226 32.4199C376.076 32.2699 375.926 32.1949 375.776 32.1949C374.726 32.6449 373.151 33.1699 371.051 33.7699C371.051 33.7699 370.901 33.7699 370.601 33.7699C370.451 33.7699 370.226 33.6949 369.926 33.5449C367.676 34.1449 366.701 34.5199 367.001 34.6699C367.151 34.6699 367.226 34.6699 367.226 34.6699C367.076 34.6699 367.001 34.6699 367.001 34.6699C366.551 34.3699 366.326 34.2199 366.326 34.2199C366.326 34.2199 365.876 34.3699 364.976 34.6699L364.076 36.4699C363.626 36.3199 363.176 36.2449 362.726 36.2449C362.576 36.2449 362.276 36.3949 361.826 36.6949C361.526 36.9949 361.301 37.1449 361.151 37.1449C361.001 37.1449 360.926 37.0699 360.926 36.9199H360.701C360.251 36.9199 359.726 37.4449 359.126 38.4949C358.976 38.4949 358.826 38.4949 358.676 38.4949C358.676 38.3449 358.601 38.2699 358.451 38.2699C358.001 38.2699 357.401 38.4949 356.651 38.9449L353.501 40.7449C353.501 40.5949 353.351 40.5199 353.051 40.5199C352.301 40.5199 351.851 41.0449 351.701 42.0949C351.401 42.0949 350.876 42.2449 350.126 42.5449C349.526 42.6949 349.226 42.7699 349.226 42.7699L348.326 42.5449V42.9949C348.026 42.6949 347.801 42.5449 347.651 42.5449C347.651 43.2949 346.976 43.8199 345.626 44.1199C344.726 44.7199 344.276 45.1699 344.276 45.4699C344.276 45.6199 344.126 45.6949 343.826 45.6949H343.601C343.601 45.5449 343.526 45.4699 343.376 45.4699C343.226 45.4699 342.401 46.0699 340.901 47.2699L341.126 47.4949V47.7199C340.976 47.8699 340.826 47.9449 340.676 47.9449C340.376 49.1449 339.776 49.7449 338.876 49.7449C338.126 49.7449 337.676 49.6699 337.526 49.5199C337.526 49.9699 337.451 50.1949 337.301 50.1949C336.251 50.3449 335.501 50.9449 335.051 51.9949L334.826 51.7699C334.676 51.9199 334.376 52.2199 333.926 52.6699C333.776 52.5199 333.626 52.4449 333.476 52.4449C333.326 52.4449 332.651 53.2699 331.451 54.9199C331.001 55.0699 330.476 55.2949 329.876 55.5949C329.276 55.8949 328.826 56.5699 328.526 57.6199C328.526 57.6199 328.001 57.9949 326.951 58.7449C326.351 58.7449 325.751 58.9699 325.151 59.4199C324.701 59.8699 323.426 61.1449 321.326 63.2449C321.326 63.5449 320.726 64.2949 319.526 65.4949C318.326 66.5449 317.426 67.2199 316.826 67.5199C316.226 68.7199 315.176 69.6949 313.676 70.4449L313.001 72.0199H311.876C311.576 72.3199 311.201 72.7699 310.751 73.3699C310.451 73.8199 310.001 74.4199 309.401 75.1699C309.101 75.3199 308.726 75.5449 308.276 75.8449C307.826 76.1449 307.301 76.4449 306.701 76.7449C306.251 77.3449 305.801 78.3949 305.351 79.8949C305.351 79.8949 304.376 80.4949 302.426 81.6949C302.126 81.8449 301.901 82.1449 301.751 82.5949C301.601 83.0449 300.926 83.4949 299.726 83.9449L298.826 86.1949C298.076 86.9449 297.251 87.9199 296.351 89.1199C295.451 90.1699 294.626 91.5199 293.876 93.1699C292.526 94.6699 292.001 96.3199 292.301 98.1199L303.101 104.195C303.251 104.195 303.701 104.495 304.451 105.095C305.201 105.545 306.101 105.995 307.151 106.445C307.451 106.595 307.751 106.895 308.051 107.345C308.351 107.645 308.801 107.945 309.401 108.245C309.851 108.245 310.301 108.32 310.751 108.47C311.351 109.52 311.951 110.045 312.551 110.045C312.551 110.045 312.701 109.895 313.001 109.595H313.226C313.226 109.595 313.151 109.595 313.001 109.595C313.301 109.895 314.126 110.27 315.476 110.72C315.626 110.87 315.851 111.17 316.151 111.62C316.601 111.92 316.976 112.07 317.276 112.07C317.276 111.92 317.351 111.845 317.501 111.845C317.651 111.845 318.326 112.295 319.526 113.195C320.726 113.945 321.476 114.32 321.776 114.32C321.926 114.32 321.926 114.245 321.776 114.095C321.776 113.945 321.851 113.87 322.001 113.87ZM295.226 102.395C295.226 102.395 295.151 102.395 295.001 102.395H295.226ZM237.851 172.145L238.301 171.245C238.451 171.395 238.676 171.47 238.976 171.47C239.126 171.47 239.276 171.32 239.426 171.02C239.576 170.72 239.726 170.57 239.876 170.57H240.101C240.101 170.72 240.176 170.795 240.326 170.795L240.551 170.57C241.001 170.12 241.976 169.07 243.476 167.42C244.976 165.92 246.251 164.945 247.301 164.495C247.451 164.345 247.676 164.27 247.976 164.27C249.476 162.02 251.951 159.02 255.401 155.27C255.551 154.82 255.776 154.37 256.076 153.92C256.526 153.62 257.426 152.72 258.776 151.22C258.776 150.62 259.001 150.02 259.451 149.42C259.901 149.12 260.501 148.52 261.251 147.62C262.451 146.12 263.426 144.845 264.176 143.795C264.926 142.745 265.451 141.92 265.751 141.32C265.901 140.57 266.501 139.295 267.551 137.495C268.601 136.895 269.126 136.22 269.126 135.47C269.126 135.32 269.276 135.245 269.576 135.245C269.876 134.645 270.176 133.97 270.476 133.22C270.926 132.32 271.376 131.345 271.826 130.295L273.401 128.045L274.301 124.67C275.051 123.32 275.726 121.52 276.326 119.27C277.676 114.47 278.501 112.22 278.801 112.52C278.651 112.22 278.426 111.995 278.126 111.845C276.026 114.845 274.976 116.42 274.976 116.57C275.126 116.72 273.851 118.295 271.151 121.295C270.701 122.345 270.026 123.545 269.126 124.895C268.376 126.245 267.326 127.97 265.976 130.07C265.676 130.37 265.301 130.745 264.851 131.195C264.551 131.495 263.951 132.47 263.051 134.12L261.026 136.82C261.026 136.82 260.876 137.27 260.576 138.17C259.976 138.92 259.301 139.82 258.551 140.87C257.951 141.77 257.276 142.82 256.526 144.02C255.926 144.77 255.176 145.745 254.276 146.945C253.526 147.995 252.626 149.345 251.576 150.995C251.576 152.045 251.201 152.795 250.451 153.245C249.851 153.695 248.876 155.195 247.526 157.745C247.376 157.595 247.301 157.52 247.301 157.52L243.476 162.695L240.776 165.62C240.476 166.22 240.101 166.745 239.651 167.195C239.201 167.795 238.526 168.545 237.626 169.445C237.326 170.045 237.176 170.57 237.176 171.02C237.176 170.57 237.401 170.945 237.851 172.145ZM278.801 112.97C278.801 112.82 278.801 112.67 278.801 112.52V112.97ZM398.051 145.595V145.82V145.595ZM216.251 175.97V176.195V175.97ZM474.019 164.27C471.769 164.27 470.794 163.895 471.094 163.145L468.394 164.045L467.269 163.145C467.569 163.145 467.344 163.07 466.594 162.92C465.844 162.92 464.644 162.845 462.994 162.695H461.644C460.594 162.695 459.694 162.92 458.944 163.37L453.994 161.345L453.094 161.57L450.394 160.445L449.719 160.895L445.669 158.42L443.644 159.095L442.969 157.295C442.069 156.095 441.394 156.095 440.944 157.295L439.369 154.82C438.769 155.72 438.094 156.02 437.344 155.72L435.544 152.57L434.644 153.695C433.594 153.695 433.144 153.02 433.294 151.67C430.894 149.42 428.644 147.17 426.544 144.92C424.594 142.67 422.719 140.42 420.919 138.17L421.144 137.72C420.994 136.97 420.694 135.995 420.244 134.795C419.944 133.595 419.494 132.245 418.894 130.745L417.994 130.295L417.319 127.595C416.269 127.595 415.744 123.17 415.744 114.32L416.419 108.245L417.094 108.47L418.219 102.845L419.119 102.17C419.269 97.2199 420.319 92.7199 422.269 88.6699C423.469 86.1199 425.944 82.2949 429.694 77.1949L429.919 76.0699C430.819 75.3199 431.869 74.4199 433.069 73.3699C434.419 72.3199 435.844 71.0449 437.344 69.5449V68.6449C437.344 67.5949 439.819 65.0449 444.769 60.9949C444.769 59.9449 445.519 58.7449 447.019 57.3949L447.919 58.0699C448.519 58.0699 448.894 57.4699 449.044 56.2699C449.194 55.0699 449.419 54.3199 449.719 54.0199C451.219 52.5199 453.019 50.8699 455.119 49.0699C457.219 47.2699 459.694 45.3949 462.544 43.4449V42.5449L465.694 39.8449L465.919 40.2949L475.144 33.9949L476.044 34.4449C476.644 34.4449 476.944 34.1449 476.944 33.5449L477.844 33.7699C480.244 31.0699 482.569 29.1949 484.819 28.1449L485.719 28.5949L487.744 27.4699C487.744 27.4699 487.894 27.3949 488.194 27.2449C488.644 26.9449 489.244 26.6449 489.994 26.3449L507.319 20.2699C509.869 19.3699 512.719 18.6949 515.869 18.2449C519.019 17.7949 522.469 17.4949 526.219 17.3449L528.469 16.4449C529.969 16.1449 531.619 15.9199 533.419 15.7699C535.369 15.6199 537.394 15.4699 539.494 15.3199L547.144 15.9949C549.994 16.8949 551.269 17.1199 550.969 16.6699C555.019 17.7199 557.644 18.9949 558.844 20.4949L559.294 20.2699C560.794 20.2699 561.619 20.7949 561.769 21.8449C563.719 21.9949 565.594 23.3449 567.394 25.8949C571.144 21.5449 574.519 17.5699 577.519 13.9699C580.519 10.2199 583.069 6.84489 585.169 3.8449C585.769 8.34489 580.744 17.1199 570.094 30.1699L570.544 31.7449V32.4199C571.744 34.5199 572.344 37.1449 572.344 40.2949C572.344 40.2949 572.194 40.7449 571.894 41.6449C571.594 42.3949 571.669 42.8449 572.119 42.9949L570.094 51.0949C569.644 52.7449 569.194 54.2449 568.744 55.5949C568.294 56.7949 567.694 57.7699 566.944 58.5199C566.794 58.6699 566.494 59.0449 566.044 59.6449C565.744 60.0949 565.294 60.8449 564.694 61.8949C563.644 63.3949 562.294 65.0449 560.644 66.8449C559.144 68.4949 557.194 70.1449 554.794 71.7949C552.844 73.2949 550.894 74.7199 548.944 76.0699C547.144 77.4199 545.269 78.7699 543.319 80.1199L542.194 79.6699L540.394 81.9199C540.244 81.7699 540.019 81.6949 539.719 81.6949C539.419 81.6949 539.044 81.7699 538.594 81.9199C538.144 82.0699 537.769 82.0699 537.469 81.9199C532.369 85.8199 529.744 87.5449 529.594 87.0949L522.619 91.3699C521.569 91.9699 519.319 92.8699 515.869 94.0699C512.569 95.1199 510.769 95.4199 510.469 94.9699C508.819 95.4199 506.944 96.3949 504.844 97.8949H503.494C498.394 102.995 495.619 106.22 495.169 107.57L493.144 108.92C488.944 111.62 485.569 112.82 483.019 112.52C481.969 112.97 481.444 112.37 481.444 110.72C481.444 108.17 482.869 105.47 485.719 102.62C486.169 101.42 486.694 100.52 487.294 99.9199C486.544 100.07 485.569 100.295 484.369 100.595C483.169 100.895 481.744 101.195 480.094 101.495C478.744 101.645 477.919 101.57 477.619 101.27C477.619 100.82 478.519 100.295 480.319 99.6949L489.544 98.1199C490.594 97.5199 491.344 97.2949 491.794 97.4449L493.819 96.7699L494.494 96.9949C495.844 96.2449 497.869 95.6449 500.569 95.1949C513.469 84.0949 523.144 75.0949 529.594 68.1949C535.444 61.8949 540.769 56.0449 545.569 50.6449C550.519 45.2449 554.944 40.3699 558.844 36.0199L557.494 34.2199C557.494 31.3699 556.894 29.9449 555.694 29.9449C555.244 29.9449 554.944 30.0199 554.794 30.1699L552.544 28.1449L552.094 28.3699L545.794 24.0949L545.569 23.1949L543.769 23.4199C542.719 22.6699 541.594 22.3699 540.394 22.5199H539.269C537.469 22.5199 536.119 22.0699 535.219 21.1699L533.644 21.6199C531.694 21.1699 530.044 20.9449 528.694 20.9449L508.894 24.0949C505.144 24.6949 501.694 25.5199 498.544 26.5699C495.394 27.6199 492.469 28.7449 489.769 29.9449C489.319 30.3949 488.194 30.9199 486.394 31.5199C485.794 31.8199 484.594 32.4949 482.794 33.5449C480.994 34.5949 478.669 36.0199 475.819 37.8199C472.969 39.4699 470.644 40.8949 468.844 42.0949C467.194 43.2949 465.994 44.1949 465.244 44.7949L461.194 48.3949L460.294 48.8449C458.794 50.3449 456.844 52.2199 454.444 54.4699C452.194 56.5699 449.569 59.0449 446.569 61.8949C445.069 63.3949 443.494 65.8699 441.844 69.3199H441.394C440.944 69.3199 440.569 69.7699 440.269 70.6699C440.119 71.7199 440.119 72.3949 440.269 72.6949L437.794 76.0699C437.344 76.6699 437.044 77.9449 436.894 79.8949C433.744 81.6949 432.169 84.2449 432.169 87.5449C430.519 89.6449 429.619 90.6949 429.469 90.6949L430.819 93.8449L429.019 97.4449C428.119 102.095 427.819 104.945 428.119 105.995C427.219 106.895 427.069 108.02 427.669 109.37L425.869 111.845C427.069 115.145 427.669 116.57 427.669 116.12C427.669 116.72 427.294 117.02 426.544 117.02L428.344 119.495L426.994 122.645L427.219 124.895H428.794C430.594 131.345 431.944 134.42 432.844 134.12C434.194 136.97 435.994 138.77 438.244 139.52V141.32C438.544 141.47 439.144 141.995 440.044 142.895C440.944 143.795 441.994 145.07 443.194 146.72L444.544 145.82L446.119 146.045L447.919 148.07V148.52L449.494 150.545L451.519 149.87C452.869 150.77 453.544 150.995 453.544 150.545L456.244 151.67C456.544 151.37 456.694 151.22 456.694 151.22C456.994 151.22 457.519 152.045 458.269 153.695H460.294L460.969 154.82C463.669 153.92 465.994 153.47 467.944 153.47C470.944 153.47 473.119 154.37 474.469 156.17C474.619 156.02 474.844 155.945 475.144 155.945C475.894 155.945 476.719 156.17 477.619 156.62C478.669 157.07 479.269 157.295 479.419 157.295L479.869 157.07L484.369 156.62L485.269 157.07L486.394 155.27C487.144 155.87 488.419 156.02 490.219 155.72L494.269 155.045C494.269 155.045 494.569 154.895 495.169 154.595C495.919 154.445 496.969 154.07 498.319 153.47C498.769 153.92 499.369 154.145 500.119 154.145C501.919 154.145 502.819 154.145 502.819 154.145L507.994 152.345L508.444 153.02L511.369 151.22C511.819 151.37 512.269 151.22 512.719 150.77L515.869 150.32L518.119 151.22L520.144 150.995C520.144 150.695 520.144 150.32 520.144 149.87C520.294 149.57 520.444 149.195 520.594 148.745L521.494 148.97L524.194 146.72L525.544 146.945L530.494 145.145L531.394 145.82L535.444 143.12L536.119 143.57L540.619 140.645L541.069 140.87C543.169 139.97 545.869 138.17 549.169 135.47L549.394 135.92C555.244 130.97 563.944 124.07 575.494 115.22L575.719 115.67C576.919 114.62 578.269 113.345 579.769 111.845C581.269 110.345 582.994 108.545 584.944 106.445L585.619 106.67L590.119 101.045L591.244 101.27C591.094 102.17 590.569 103.145 589.669 104.195C588.769 105.095 588.319 105.77 588.319 106.22C588.319 106.52 587.644 107.345 586.294 108.695C585.094 109.895 584.344 110.495 584.044 110.495C583.744 110.495 578.719 114.845 568.969 123.545C559.369 132.095 554.044 136.37 552.994 136.37C551.644 137.87 549.169 139.445 545.569 141.095C542.269 142.595 539.869 144.095 538.369 145.595L538.144 145.145L537.019 145.37L531.394 148.745L530.494 149.195C528.544 150.245 526.369 151.295 523.969 152.345C521.719 153.395 519.094 154.295 516.094 155.045L515.644 154.595L511.594 157.07L510.919 156.845C508.969 157.145 506.644 157.595 503.944 158.195C501.394 158.945 498.394 159.845 494.944 160.895L494.044 160.67C492.994 160.82 491.869 160.97 490.669 161.12C489.619 161.27 488.419 161.42 487.069 161.57C487.069 161.87 486.844 162.02 486.394 162.02C485.794 162.02 485.269 161.945 484.819 161.795C484.519 161.645 484.444 161.57 484.594 161.57C483.844 161.72 482.194 162.17 479.644 162.92C477.244 163.82 475.369 164.27 474.019 164.27ZM509.794 92.2699L511.819 90.9199L512.494 91.5949L518.569 88.2199L519.469 88.6699L521.494 86.8699L522.394 87.3199L524.194 86.1949L524.644 86.6449C528.094 83.1949 531.244 81.3949 534.094 81.2449L536.794 80.1199L536.569 78.9949L537.919 77.1949C543.169 74.1949 548.344 69.4699 553.444 63.0199C557.944 57.3199 560.344 53.2699 560.644 50.8699C561.244 51.0199 561.544 49.2949 561.544 45.6949C561.544 44.6449 561.469 43.7449 561.319 42.9949C561.319 42.0949 561.244 41.2699 561.094 40.5199C558.094 43.6699 554.794 47.1949 551.194 51.0949C547.744 54.9949 543.919 59.2699 539.719 63.9199C538.819 64.9699 535.894 67.8949 530.944 72.6949C525.994 77.3449 518.944 83.8699 509.794 92.2699ZM660.764 179.12C660.614 179.12 660.089 178.895 659.189 178.445C658.439 178.145 657.989 177.995 657.839 177.995C657.689 177.995 657.614 178.07 657.614 178.22C657.614 178.52 657.539 178.67 657.389 178.67L656.939 178.22L656.489 178.895C655.439 178.295 654.914 177.92 654.914 177.77C654.614 177.92 654.389 177.995 654.239 177.995C654.089 177.845 654.014 177.47 654.014 176.87L652.214 176.42C652.064 176.42 651.914 176.495 651.764 176.645C651.614 176.945 651.464 177.095 651.314 177.095C650.864 177.095 650.414 176.87 649.964 176.42C649.514 176.42 649.289 176.72 649.289 177.32H648.164C648.014 177.32 647.489 177.02 646.589 176.42C645.689 175.97 645.089 175.745 644.789 175.745C644.639 175.745 644.264 175.82 643.664 175.97C643.214 176.27 642.914 176.42 642.764 176.42H640.289C639.089 175.22 638.264 174.62 637.814 174.62L637.139 175.295C636.839 174.995 636.464 174.845 636.014 174.845H634.439C633.989 174.545 633.014 174.02 631.514 173.27C630.014 172.52 628.814 171.995 627.914 171.695C627.614 171.695 627.464 171.845 627.464 172.145C625.214 169.745 623.639 168.545 622.739 168.545H622.514C622.514 168.695 622.439 168.77 622.289 168.77C622.139 168.77 621.914 168.62 621.614 168.32L620.939 168.77C620.789 168.02 620.414 167.57 619.814 167.42C619.364 167.27 618.614 166.97 617.564 166.52C617.414 166.52 617.189 166.295 616.889 165.845C616.739 165.545 616.589 165.395 616.439 165.395C616.289 165.395 616.139 165.47 615.989 165.62C615.989 165.77 615.914 165.845 615.764 165.845L613.964 164.495V163.82C612.464 163.37 611.639 162.995 611.489 162.695C611.339 162.845 611.189 162.92 611.039 162.92C610.889 162.02 610.514 161.57 609.914 161.57C609.614 161.57 609.389 161.645 609.239 161.795C608.639 160.745 608.114 160.22 607.664 160.22V159.545L604.964 158.42C604.064 156.77 603.314 155.945 602.714 155.945H602.264C602.114 156.095 601.889 156.17 601.589 156.17L599.564 154.145C599.264 153.995 598.664 153.47 597.764 152.57V151.67C597.464 151.37 597.089 151.22 596.639 151.22C596.939 150.92 595.814 149.645 593.264 147.395C593.114 146.945 592.889 146.345 592.589 145.595C592.289 144.695 591.989 143.72 591.689 142.67C591.539 142.67 591.389 142.745 591.239 142.895C590.489 142.145 588.839 141.695 586.289 141.545C586.289 141.095 586.214 140.795 586.064 140.645C585.614 140.945 585.389 141.17 585.389 141.32C585.239 141.17 585.014 141.02 584.714 140.87C584.414 140.72 583.964 140.57 583.364 140.42L580.664 139.52C580.514 139.37 580.064 139.145 579.314 138.845C578.714 138.395 577.814 137.795 576.614 137.045L574.814 134.795L574.364 135.245L573.014 134.345V133.67C570.914 131.87 569.564 129.995 568.964 128.045C569.264 127.295 569.264 125.42 568.964 122.42L571.889 118.145C573.089 118.145 573.689 118.445 573.689 119.045C573.689 119.795 573.239 120.47 572.339 121.07C571.589 121.67 571.139 122.195 570.989 122.645C571.439 123.095 571.889 123.32 572.339 123.32C572.189 123.62 572.114 123.995 572.114 124.445C572.114 125.345 572.564 126.245 573.464 127.145C573.614 127.295 573.914 127.37 574.364 127.37C574.364 127.37 574.439 127.37 574.589 127.37C574.889 127.37 575.189 127.295 575.489 127.145H577.289V128.72C578.189 130.22 578.864 130.97 579.314 130.97C579.464 130.97 579.539 130.895 579.539 130.745C579.389 130.595 579.389 130.52 579.539 130.52C580.139 130.52 580.739 130.67 581.339 130.97C582.089 132.32 582.839 132.995 583.589 132.995C583.139 132.995 583.514 132.845 584.714 132.545L585.839 133.895C586.739 133.445 587.189 132.995 587.189 132.545C587.189 132.395 587.039 132.02 586.739 131.42C586.589 130.82 586.439 130.445 586.289 130.295V129.395C586.289 128.495 585.914 127.145 585.164 125.345V120.845L585.839 119.27C585.689 119.12 585.614 118.895 585.614 118.595L586.289 115.67C587.489 114.47 587.714 113.345 586.964 112.295C587.114 112.145 587.864 111.62 589.214 110.72C589.364 110.72 589.664 110.945 590.114 111.395L588.764 115.445C588.614 115.445 588.389 115.595 588.089 115.895C588.389 116.795 588.464 117.695 588.314 118.595L587.864 121.295L588.314 126.245C588.314 126.395 588.464 126.47 588.764 126.47C588.614 126.77 588.539 127.07 588.539 127.37C588.539 127.52 588.539 127.595 588.539 127.595L589.664 132.995L590.114 133.445C590.414 134.645 591.014 135.845 591.914 137.045C592.214 136.895 592.439 136.82 592.589 136.82C592.739 136.67 592.814 136.595 592.814 136.595L593.939 136.82C593.939 136.97 594.014 137.12 594.164 137.27H595.064L595.514 137.72C595.814 137.57 596.114 137.195 596.414 136.595C597.914 137.045 598.889 137.87 599.339 139.07C600.989 139.07 602.039 138.995 602.489 138.845C602.939 139.145 603.239 139.67 603.389 140.42C603.989 140.12 604.289 139.97 604.289 139.97C604.589 139.97 604.889 140.045 605.189 140.195C605.639 140.345 605.939 140.42 606.089 140.42C605.939 140.42 606.164 140.195 606.764 139.745H608.339C608.639 140.495 609.089 140.87 609.689 140.87C609.989 140.87 610.364 140.795 610.814 140.645C611.264 140.345 611.564 140.195 611.714 140.195C612.014 140.195 612.389 140.42 612.839 140.87C613.289 141.32 613.589 141.545 613.739 141.545L614.639 141.32C614.639 141.62 614.789 141.92 615.089 142.22C615.089 142.22 615.914 142.07 617.564 141.77C617.714 141.62 617.939 141.47 618.239 141.32C618.539 141.02 618.839 140.87 619.139 140.87C621.089 141.92 622.439 142.445 623.189 142.445C623.489 142.445 623.789 142.295 624.089 141.995V142.67C625.139 142.07 625.664 141.77 625.664 141.77L628.589 142.67C629.189 142.67 630.014 142.145 631.064 141.095C631.514 141.545 631.964 141.77 632.414 141.77C632.564 141.77 632.639 141.695 632.639 141.545H632.864C633.014 141.545 633.164 141.695 633.314 141.995C633.614 142.145 633.839 142.22 633.989 142.22C634.139 142.22 634.364 142.22 634.664 142.22C634.964 142.22 635.414 142.145 636.014 141.995H637.814C638.714 141.995 639.539 141.62 640.289 140.87C640.739 141.92 641.189 142.445 641.639 142.445H647.039C646.889 142.595 647.114 142.67 647.714 142.67C647.864 142.67 648.089 142.595 648.389 142.445C648.689 142.295 648.914 142.22 649.064 142.22C649.364 142.22 649.514 142.295 649.514 142.445C649.664 142.595 649.814 142.67 649.964 142.67C650.114 142.67 650.564 142.595 651.314 142.445C652.064 142.145 652.664 141.995 653.114 141.995C653.264 141.995 653.339 142.07 653.339 142.22C653.489 142.37 653.639 142.445 653.789 142.445C653.939 142.445 654.164 142.37 654.464 142.22C654.914 141.92 655.214 141.77 655.364 141.77C655.514 141.77 656.039 141.92 656.939 142.22L657.389 141.77C657.539 141.92 658.139 141.995 659.189 141.995C659.339 141.995 659.414 141.92 659.414 141.77C659.564 141.62 659.789 141.545 660.089 141.545C660.239 141.545 660.464 141.62 660.764 141.77C661.214 141.92 661.589 141.995 661.889 141.995L663.914 141.545C664.664 141.545 665.114 141.47 665.264 141.32L665.714 141.77C666.014 141.32 666.389 141.095 666.839 141.095C666.989 141.095 667.064 141.17 667.064 141.32C667.064 141.47 667.214 141.545 667.514 141.545C667.664 141.545 667.664 141.47 667.514 141.32C667.514 141.17 667.814 141.02 668.414 140.87H669.089C669.239 140.87 669.539 140.87 669.989 140.87C670.439 140.72 671.039 140.645 671.789 140.645H674.264C674.414 140.645 674.489 140.57 674.489 140.42C674.639 140.12 674.789 139.97 674.939 139.97H675.839C676.139 140.12 676.439 140.195 676.739 140.195L677.639 139.52C678.839 139.37 679.664 139.295 680.114 139.295C680.714 139.145 680.939 139.07 680.789 139.07C682.889 138.47 684.389 138.02 685.289 137.72C686.339 137.42 686.789 137.27 686.639 137.27C686.639 137.42 686.939 137.57 687.539 137.72C687.689 137.57 687.764 137.195 687.764 136.595C687.764 135.995 688.364 135.695 689.564 135.695C689.864 135.695 690.314 135.845 690.914 136.145C690.914 136.295 691.064 136.82 691.364 137.72C690.764 138.77 689.714 139.295 688.214 139.295C688.064 139.295 687.914 139.22 687.764 139.07H687.539C687.239 139.07 686.564 139.37 685.514 139.97C684.614 140.57 684.089 140.87 683.939 140.87C683.489 140.87 683.114 141.095 682.814 141.545L682.139 141.095C680.339 141.095 678.089 141.47 675.389 142.22C674.039 142.67 673.589 142.895 674.039 142.895C673.589 142.895 673.139 142.82 672.689 142.67H671.564C671.414 142.67 671.264 142.745 671.114 142.895C671.114 143.045 670.964 143.12 670.664 143.12C670.514 143.12 670.439 143.045 670.439 142.895H670.214C669.764 142.895 669.539 143.12 669.539 143.57C669.239 143.27 668.939 143.12 668.639 143.12L665.939 143.795C665.639 143.795 665.489 143.72 665.489 143.57L665.264 143.345C665.114 143.345 664.814 143.495 664.364 143.795C664.064 143.945 663.839 144.02 663.689 144.02H663.239C663.239 143.87 663.164 143.795 663.014 143.795C662.564 143.795 662.039 143.87 661.439 144.02C660.839 144.17 660.014 144.62 658.964 145.37C658.514 144.92 658.214 144.695 658.064 144.695C657.614 144.695 657.089 144.845 656.489 145.145C656.039 145.445 655.739 145.595 655.589 145.595H654.689C654.389 145.445 654.089 145.37 653.789 145.37C653.639 145.37 653.414 145.445 653.114 145.595C652.814 145.745 652.589 145.82 652.439 145.82C652.289 145.82 652.139 145.745 651.989 145.595C651.839 145.445 651.614 145.37 651.314 145.37C651.164 145.37 651.014 145.445 650.864 145.595C650.714 145.745 650.564 145.82 650.414 145.82C650.264 145.82 650.114 145.745 649.964 145.595C649.814 145.445 649.589 145.37 649.289 145.37C648.839 145.37 648.389 145.52 647.939 145.82C647.639 145.97 647.489 146.045 647.489 146.045H647.264C646.664 146.045 646.214 145.67 645.914 144.92C644.714 145.22 643.889 145.52 643.439 145.82C643.589 145.97 643.589 146.045 643.439 146.045C643.139 146.045 643.139 145.97 643.439 145.82C643.289 145.67 643.139 145.52 642.989 145.37C642.839 145.82 642.539 146.045 642.089 146.045C641.939 146.045 641.789 146.045 641.639 146.045C641.489 145.895 641.264 145.745 640.964 145.595C640.814 145.745 640.739 146.27 640.739 147.17C639.989 146.42 639.314 146.045 638.714 146.045C639.014 146.045 638.789 146.195 638.039 146.495C637.589 145.895 637.214 145.595 636.914 145.595H635.564L634.889 146.045L632.639 145.595C632.189 145.595 631.964 145.745 631.964 146.045L631.289 145.595C630.989 145.895 630.689 146.045 630.389 146.045C630.389 146.045 629.864 145.745 628.814 145.145C628.364 145.595 628.139 146.045 628.139 146.495H627.464L627.014 146.045C626.864 146.195 626.789 146.42 626.789 146.72L626.339 146.045C626.189 146.045 626.114 146.12 626.114 146.27C626.114 145.97 625.814 145.82 625.214 145.82C624.914 145.82 624.689 145.895 624.539 146.045C624.539 145.895 624.239 145.595 623.639 145.145L622.964 145.595C622.664 145.595 622.514 145.745 622.514 146.045C621.314 145.295 620.564 144.92 620.264 144.92C620.414 144.92 620.114 145.07 619.364 145.37C618.914 144.92 618.389 144.695 617.789 144.695C617.639 144.695 617.264 144.92 616.664 145.37C616.214 145.67 615.839 145.82 615.539 145.82C614.789 145.82 614.114 145.67 613.514 145.37C613.064 145.07 612.764 144.92 612.614 144.92C612.914 144.92 612.539 145.07 611.489 145.37C611.789 145.07 611.789 144.845 611.489 144.695C611.339 144.695 611.264 144.845 611.264 145.145H610.364L609.689 144.245L607.664 144.92L604.064 143.795C599.564 143.795 597.164 143.87 596.864 144.02C597.314 144.62 597.989 145.295 598.889 146.045V146.72C599.489 147.02 600.089 147.47 600.689 148.07C601.289 148.67 601.964 149.345 602.714 150.095C603.164 150.995 604.214 151.82 605.864 152.57C606.164 152.72 606.614 152.795 607.214 152.795C607.514 152.795 607.739 152.72 607.889 152.57H609.014V153.02C609.014 153.47 609.314 153.92 609.914 154.37C610.664 154.97 611.039 155.42 611.039 155.72C611.039 156.02 610.964 156.245 610.814 156.395C612.914 157.295 613.889 157.745 613.739 157.745C613.889 157.745 614.114 157.595 614.414 157.295C614.864 157.145 615.164 157.07 615.314 157.07C615.764 157.07 616.214 157.67 616.664 158.87L617.339 158.195H618.014C618.014 158.495 617.939 158.72 617.789 158.87C618.239 159.02 618.614 159.095 618.914 159.095C619.214 159.095 620.264 159.47 622.064 160.22C622.214 160.22 622.439 160.07 622.739 159.77C623.039 160.37 623.339 160.895 623.639 161.345C623.939 161.945 624.389 162.245 624.989 162.245H625.439C625.439 162.095 625.589 162.02 625.889 162.02C626.039 162.02 626.039 162.095 625.889 162.245C625.889 162.395 625.964 162.47 626.114 162.47C626.264 162.47 626.414 162.32 626.564 162.02C626.714 161.87 626.864 161.795 627.014 161.795C627.314 161.795 627.689 161.945 628.139 162.245C628.589 162.695 628.889 163.07 629.039 163.37C629.339 162.92 629.564 162.695 629.714 162.695C629.864 162.695 630.239 162.845 630.839 163.145C631.589 163.445 632.114 163.595 632.414 163.595C633.014 163.595 633.614 163.37 634.214 162.92C634.814 163.82 635.639 164.57 636.689 165.17L637.139 165.62C636.989 165.77 636.914 166.295 636.914 167.195L638.039 166.745L638.264 167.645C638.264 168.395 637.964 168.77 637.364 168.77H636.914C636.914 169.07 637.064 169.22 637.364 169.22C637.514 169.22 637.739 169.22 638.039 169.22C638.339 169.22 638.639 169.145 638.939 168.995H640.514C640.814 168.995 640.964 168.62 640.964 167.87H642.989C643.139 167.87 643.289 167.72 643.439 167.42C643.739 167.27 643.964 167.195 644.114 167.195L646.139 167.87L647.039 166.07C647.639 166.37 648.239 166.52 648.839 166.52C649.589 166.52 650.789 166.745 652.439 167.195L652.889 167.87V167.195C653.339 167.045 654.389 166.97 656.039 166.97C655.739 166.97 656.489 167.42 658.289 168.32C659.189 167.87 659.564 167.57 659.414 167.42H659.189C659.339 167.42 659.414 167.42 659.414 167.42C659.564 167.57 659.714 167.645 659.864 167.645C660.014 167.795 660.164 167.87 660.314 167.87C660.914 167.27 661.139 166.97 660.989 166.97C661.139 166.97 661.289 166.97 661.439 166.97C661.589 167.12 661.814 167.27 662.114 167.42C662.114 167.57 662.189 167.795 662.339 168.095C662.639 167.795 663.014 167.645 663.464 167.645C663.614 167.645 663.614 167.345 663.464 166.745C663.764 166.745 664.139 166.595 664.589 166.295C665.039 166.145 665.339 166.07 665.489 166.07C665.639 166.07 666.314 166.37 667.514 166.97C668.714 167.57 669.389 167.87 669.539 167.87H669.764C670.364 167.27 670.664 166.82 670.664 166.52C670.964 166.52 671.339 166.745 671.789 167.195C672.539 166.445 673.139 166.07 673.589 166.07C673.739 166.07 673.889 166.145 674.039 166.295C674.189 166.445 674.339 166.52 674.489 166.52C674.939 166.52 675.689 165.995 676.739 164.945H677.414C677.564 165.095 677.714 165.17 677.864 165.17H678.314C678.464 165.77 678.464 166.595 678.314 167.645L678.989 168.545C679.289 168.245 679.514 168.245 679.664 168.545L680.114 167.87V166.745C680.114 166.745 680.189 166.595 680.339 166.295C680.489 166.145 680.714 166.07 681.014 166.07C681.164 166.07 681.314 166.145 681.464 166.295C681.614 165.995 681.839 165.62 682.139 165.17C682.439 164.72 682.739 164.195 683.039 163.595C683.039 163.745 683.189 163.82 683.489 163.82C684.239 163.97 684.764 164.195 685.064 164.495C685.364 164.045 685.964 163.82 686.864 163.82L687.539 164.495L689.114 163.595V162.695L690.464 161.57C693.164 160.37 694.889 159.77 695.639 159.77L696.089 160.22C696.239 160.22 696.314 159.995 696.314 159.545C696.464 159.695 696.914 159.545 697.664 159.095C698.264 159.395 698.489 159.62 698.339 159.77C698.189 159.92 698.264 159.995 698.564 159.995H700.139C700.889 159.995 701.339 159.995 701.489 159.995C701.789 160.145 702.014 160.22 702.164 160.22C702.464 160.22 702.764 159.995 703.064 159.545C703.364 159.245 704.489 158.42 706.439 157.07C708.389 155.87 709.664 155.27 710.264 155.27C710.114 155.12 710.114 154.82 710.264 154.37C710.264 154.22 710.264 154.145 710.264 154.145V154.37C710.264 154.37 710.639 154.37 711.389 154.37C711.839 154.37 712.139 154.145 712.289 153.695L712.739 154.145L714.089 153.47C714.389 153.17 714.239 152.645 713.639 151.895V150.32L714.539 150.095C714.839 150.095 715.139 150.17 715.439 150.32C715.889 150.62 716.189 150.77 716.339 150.77C716.939 150.47 717.914 150.02 719.264 149.42C720.614 148.82 721.364 148.22 721.514 147.62V147.395C721.514 146.945 721.664 146.345 721.964 145.595C722.414 144.845 722.789 144.47 723.089 144.47C723.389 144.47 723.614 144.545 723.764 144.695H724.214C724.514 144.695 725.189 144.245 726.239 143.345C726.389 143.195 726.464 142.97 726.464 142.67C726.464 142.37 726.539 141.995 726.689 141.545C726.689 141.545 727.214 141.92 728.264 142.67C728.414 142.67 728.564 142.595 728.714 142.445C729.014 142.145 729.314 141.995 729.614 141.995V138.845C729.914 138.695 730.214 138.545 730.514 138.395C730.964 138.245 731.489 138.02 732.089 137.72C732.539 137.42 732.989 136.745 733.439 135.695H734.789C734.789 135.395 734.939 134.87 735.239 134.12C735.089 134.12 735.089 134.045 735.239 133.895V134.12C735.239 134.12 735.389 134.12 735.689 134.12C735.239 134.12 735.464 133.97 736.364 133.67C736.064 132.62 735.689 132.02 735.239 131.87C735.389 131.72 735.464 131.495 735.464 131.195H736.814C736.814 130.745 736.664 130.37 736.364 130.07C736.664 129.62 737.189 129.17 737.939 128.72C738.839 128.27 739.289 127.745 739.289 127.145C739.289 126.845 739.289 126.545 739.289 126.245C739.289 125.795 739.139 125.345 738.839 124.895C738.839 124.595 738.914 124.295 739.064 123.995H739.289C740.339 123.995 740.864 122.72 740.864 120.17C740.864 118.37 740.564 116.945 739.964 115.895C739.964 115.745 740.039 115.595 740.189 115.445C740.039 115.145 739.664 114.47 739.064 113.42C738.614 112.37 737.789 111.095 736.589 109.595L734.564 106.895C732.464 104.795 731.264 103.745 730.964 103.745C730.664 103.745 730.589 103.82 730.739 103.97C730.739 104.12 730.739 104.195 730.739 104.195C730.739 104.195 730.739 104.12 730.739 103.97C730.289 103.22 729.764 102.845 729.164 102.845C729.014 102.845 728.864 102.92 728.714 103.07C728.564 102.02 728.189 101.495 727.589 101.495H727.364C727.364 101.645 727.289 101.72 727.139 101.72C726.989 101.72 726.689 101.495 726.239 101.045C725.789 100.595 725.489 100.37 725.339 100.37H725.114C725.114 100.52 725.039 100.595 724.889 100.595C725.339 100.595 725.189 100.37 724.439 99.9199C723.989 99.9199 722.639 99.4699 720.389 98.5699C718.289 97.6699 716.714 97.2199 715.664 97.2199C715.664 96.7699 715.514 96.5449 715.214 96.5449C715.064 96.5449 714.989 96.6199 714.989 96.7699C714.989 96.9199 714.914 96.9949 714.764 96.9949C714.614 96.9949 713.639 96.6199 711.839 95.8699H710.714C710.564 95.8699 710.414 95.8699 710.264 95.8699C710.114 95.7199 709.664 95.5699 708.914 95.4199C708.764 95.4199 708.614 95.4949 708.464 95.6449L708.014 94.9699C708.014 94.9699 707.864 94.8199 707.564 94.5199C707.264 94.8199 706.964 94.9699 706.664 94.9699C706.364 94.9699 705.689 94.7449 704.639 94.2949C703.739 93.8449 703.214 93.6199 703.064 93.6199C702.764 93.6199 702.389 93.6949 701.939 93.8449H700.589C700.439 93.8449 700.289 93.7699 700.139 93.6199C699.989 93.4699 699.839 93.3949 699.689 93.3949C699.389 93.3949 698.864 93.3949 698.114 93.3949C697.514 93.3949 696.764 93.3199 695.864 93.1699L695.189 92.4949H694.739L694.289 92.0449L693.389 92.7199C692.639 91.9699 691.814 91.5949 690.914 91.5949H690.014C689.714 91.7449 689.414 91.8199 689.114 91.8199C688.964 91.8199 688.889 91.7449 688.889 91.5949C689.039 91.4449 689.039 91.3699 688.889 91.3699C688.739 91.3699 688.589 91.2949 688.439 91.1449C688.439 90.9949 688.364 90.9199 688.214 90.9199L686.639 91.3699C686.489 91.3699 686.114 91.2199 685.514 90.9199C684.914 90.4699 684.464 90.2449 684.164 90.2449H683.714C683.564 90.2449 683.039 90.1699 682.139 90.0199C681.389 89.8699 680.264 89.6449 678.764 89.3449L673.814 88.2199L673.139 88.4449C672.689 88.4449 671.339 87.9199 669.089 86.8699C666.989 85.8199 665.789 85.2949 665.489 85.2949H665.039C664.889 85.4449 664.739 85.5199 664.589 85.5199C663.989 85.5199 663.089 85.1449 661.889 84.3949V84.8449C661.139 84.5449 658.514 83.7199 654.014 82.3699C651.614 81.1699 648.239 79.3699 643.889 76.9699C643.139 76.0699 642.614 75.0949 642.314 74.0449V72.2449C641.714 70.8949 641.039 69.9949 640.289 69.5449C640.589 68.6449 640.439 68.0449 639.839 67.7449C640.139 66.9949 640.064 66.2449 639.614 65.4949L640.289 60.7699C640.589 60.4699 640.814 59.9449 640.964 59.1949C641.114 58.2949 641.639 56.5699 642.539 54.0199C642.689 53.7199 642.764 53.4199 642.764 53.1199C642.764 52.8199 642.839 52.4449 642.989 51.9949C642.989 52.1449 643.064 52.2949 643.214 52.4449C643.364 52.2949 643.589 51.9199 643.889 51.3199C644.189 50.5699 644.789 49.9699 645.689 49.5199C645.689 49.2199 645.839 48.7699 646.139 48.1699C646.589 47.5699 647.414 46.4449 648.614 44.7949C649.664 44.3449 650.864 43.1449 652.214 41.1949C653.564 39.2449 654.764 37.8949 655.814 37.1449L657.839 36.4699L658.739 35.3449L663.464 32.6449C663.764 32.3449 664.439 32.1199 665.489 31.9699L665.939 31.5199C666.539 31.5199 666.839 31.2949 666.839 30.8449L667.289 31.2949C667.289 31.1449 668.114 30.6949 669.764 29.9449L671.564 29.0449C672.014 28.5949 672.614 28.2949 673.364 28.1449C673.664 27.9949 673.964 27.9199 674.264 27.9199C674.564 27.9199 674.939 27.8449 675.389 27.6949C675.539 27.6949 675.689 27.5449 675.839 27.2449C676.139 26.9449 676.364 26.7949 676.514 26.7949C676.664 26.7949 676.739 26.8699 676.739 27.0199H676.964C676.814 27.0199 677.264 26.7199 678.314 26.1199C680.414 24.6199 683.039 23.7949 686.189 23.6449C686.339 23.6449 686.564 23.4949 686.864 23.1949C687.164 22.8949 687.389 22.7449 687.539 22.7449H687.989C688.139 22.8949 688.289 22.9699 688.439 22.9699C688.739 22.9699 689.039 22.8949 689.339 22.7449C689.639 22.4449 689.939 22.2949 690.239 22.2949C689.639 22.2949 690.314 21.9949 692.264 21.3949C694.364 20.6449 696.914 20.2699 699.914 20.2699C700.364 20.2699 700.814 20.1949 701.264 20.0449H702.839C702.989 20.0449 703.064 19.9699 703.064 19.8199H703.289C704.039 19.8199 704.789 19.7449 705.539 19.5949C706.289 19.4449 706.739 19.0699 706.889 18.4699L707.339 18.9199C707.789 18.1699 708.164 18.1699 708.464 18.9199V18.4699H709.589C709.739 18.4699 709.814 18.5449 709.814 18.6949C709.964 18.8449 710.114 18.9199 710.264 18.9199C710.714 18.9199 710.939 18.7699 710.939 18.4699L711.839 19.1449C713.039 17.7949 713.939 17.1199 714.539 17.1199L716.114 17.5699C716.414 17.5699 716.564 17.4949 716.564 17.3449C716.564 17.1949 716.639 17.1199 716.789 17.1199C716.939 17.1199 717.389 17.2699 718.139 17.5699C719.039 17.8699 719.639 18.0199 719.939 18.0199C720.089 18.0199 720.389 17.8699 720.839 17.5699C721.289 17.1199 721.589 16.8949 721.739 16.8949C722.789 17.0449 723.539 17.2699 723.989 17.5699C724.589 17.7199 725.489 18.0199 726.689 18.4699C727.439 17.5699 727.889 17.1199 728.039 17.1199C728.339 17.1199 729.089 17.4199 730.289 18.0199L731.189 17.3449C731.039 17.4949 730.964 17.7199 730.964 18.0199C731.114 18.1699 731.264 18.2449 731.414 18.2449H732.764C733.064 18.2449 733.064 18.0199 732.764 17.5699C733.364 18.1699 733.889 18.4699 734.339 18.4699C734.489 18.4699 734.564 18.3949 734.564 18.2449H734.789C734.639 18.2449 734.864 18.4699 735.464 18.9199C735.314 18.9199 735.389 18.9949 735.689 19.1449C735.989 19.1449 736.439 19.2199 737.039 19.3699C737.339 19.6699 737.564 20.2699 737.714 21.1699C737.864 21.0199 737.939 20.7949 737.939 20.4949C737.939 20.7949 738.014 21.0199 738.164 21.1699L742.889 23.1949C742.889 24.0949 743.564 24.9949 744.914 25.8949C744.764 26.4949 745.139 27.6199 746.039 29.2699C747.089 30.9199 747.464 32.0449 747.164 32.6449C747.764 33.6949 748.064 34.5949 748.064 35.3449C748.064 36.8449 747.839 38.2699 747.389 39.6199C746.939 40.2199 746.414 41.1949 745.814 42.5449C745.364 43.8949 744.164 45.3949 742.214 47.0449C739.964 48.9949 738.614 50.4949 738.164 51.5449L732.089 56.2699C731.789 56.5699 731.564 56.8699 731.414 57.1699C731.264 57.3199 731.189 57.3949 731.189 57.3949C730.889 57.3949 730.739 57.3199 730.739 57.1699C730.889 57.0199 730.814 56.9449 730.514 56.9449C730.664 56.9449 729.764 57.4699 727.814 58.5199L726.239 58.9699C725.789 59.2699 725.189 59.7199 724.439 60.3199C723.839 60.7699 723.014 61.3699 721.964 62.1199C721.364 62.2699 720.689 62.5699 719.939 63.0199C719.189 63.3199 718.289 63.7699 717.239 64.3699C717.239 63.9199 717.014 63.6949 716.564 63.6949L720.839 60.0949C721.139 60.0949 721.514 60.0199 721.964 59.8699L726.014 56.2699L727.814 55.3699C728.414 55.2199 728.714 54.7699 728.714 54.0199H729.164C730.814 54.0199 732.089 52.5949 732.989 49.7449C733.439 49.7449 733.739 49.8199 733.889 49.9699C734.039 49.5199 734.339 49.0699 734.789 48.6199C735.239 48.1699 735.839 47.5699 736.589 46.8199C737.489 45.6199 738.464 44.1949 739.514 42.5449C740.564 40.7449 741.614 38.8699 742.664 36.9199C742.664 36.9199 742.514 36.6199 742.214 36.0199C742.364 35.7199 742.664 35.3449 743.114 34.8949C743.564 34.2949 743.789 33.9199 743.789 33.7699C743.789 33.7699 743.639 33.4699 743.339 32.8699V29.7199C743.339 28.6699 742.814 27.6199 741.764 26.5699C741.464 26.7199 741.239 26.7949 741.089 26.7949L741.314 25.8949C741.314 25.4449 740.339 24.6949 738.389 23.6449C735.989 22.1449 734.489 21.3949 733.889 21.3949H733.214C733.064 21.5449 732.839 21.6199 732.539 21.6199C732.239 21.6199 731.714 21.4699 730.964 21.1699C730.364 20.8699 729.989 20.7199 729.839 20.7199C729.689 20.7199 729.614 20.7949 729.614 20.9449C729.614 21.0949 729.539 21.1699 729.389 21.1699L724.439 20.0449C724.289 20.0449 724.214 20.1199 724.214 20.2699C724.214 20.4199 724.139 20.4949 723.989 20.4949C723.839 20.4949 723.614 20.4199 723.314 20.2699C723.014 20.1199 722.714 20.0449 722.414 20.0449C722.264 20.0449 722.114 20.1199 721.964 20.2699C721.964 20.4199 721.889 20.4949 721.739 20.4949C721.589 20.4949 721.514 20.4199 721.514 20.2699H721.064C720.914 20.2699 720.839 20.3449 720.839 20.4949C720.839 20.6449 720.764 20.7199 720.614 20.7199C720.464 20.7199 720.314 20.6449 720.164 20.4949C720.164 20.3449 720.089 20.2699 719.939 20.2699C719.789 20.2699 719.714 20.3449 719.714 20.4949H719.939L716.339 21.1699C716.039 21.1699 715.664 21.1699 715.214 21.1699C714.764 21.1699 714.239 21.2449 713.639 21.3949L712.964 20.9449C710.564 21.8449 708.764 22.2949 707.564 22.2949C707.264 22.2949 707.114 22.2199 707.114 22.0699H706.889C706.589 22.0699 705.539 22.3699 703.739 22.9699C702.089 23.5699 701.189 23.8699 701.039 23.8699C700.889 23.8699 700.889 23.7949 701.039 23.6449C701.039 23.4949 700.964 23.4199 700.814 23.4199C700.964 23.4199 701.039 23.4199 701.039 23.4199C701.039 23.2699 701.039 23.1949 701.039 23.1949C701.039 23.0449 700.514 23.1199 699.464 23.4199C698.414 23.7199 697.364 24.0949 696.314 24.5449C695.414 24.8449 694.889 25.1449 694.739 25.4449H694.514C694.514 25.2949 694.439 25.2199 694.289 25.2199C693.389 25.2199 692.564 25.8199 691.814 27.0199C691.814 26.8699 691.889 26.7199 692.039 26.5699L691.139 26.1199L690.014 27.6949L689.564 27.2449C690.164 27.2449 688.889 27.8449 685.739 29.0449C685.589 29.1949 685.514 29.2699 685.514 29.2699C685.514 29.2699 685.514 29.3449 685.514 29.4949C685.364 29.3449 685.364 29.2699 685.514 29.2699C685.364 29.2699 685.289 29.2699 685.289 29.2699C685.289 29.4199 684.164 29.9449 681.914 30.8449L679.439 31.7449L677.864 32.8699L665.039 42.3199C663.539 43.3699 662.414 44.5699 661.664 45.9199C661.064 47.1199 660.314 48.4699 659.414 49.9699L658.739 49.5199C658.589 50.2699 657.839 51.0199 656.489 51.7699C656.639 51.6199 656.714 51.9949 656.714 52.8949C656.714 53.1949 656.264 53.7199 655.364 54.4699V55.1449C655.364 56.0449 655.439 56.7949 655.589 57.3949C655.439 57.8449 655.289 58.4449 655.139 59.1949C655.139 59.7949 654.839 60.9199 654.239 62.5699C654.239 62.7199 654.239 62.9449 654.239 63.2449C654.239 63.5449 654.314 63.8449 654.464 64.1449C654.314 64.7449 654.164 65.1949 654.014 65.4949C654.014 65.6449 654.014 65.6449 654.014 65.4949C654.014 66.8449 654.089 67.3699 654.239 67.0699C655.889 67.6699 656.564 69.0199 656.264 71.1199C657.014 71.8699 657.389 72.2449 657.389 72.2449C657.539 72.2449 657.614 72.1699 657.614 72.0199H657.839C658.139 72.0199 658.514 72.2449 658.964 72.6949C659.414 73.1449 660.014 73.3699 660.764 73.3699C660.614 73.5199 660.689 74.0449 660.989 74.9449C661.439 75.8449 661.814 76.2949 662.114 76.2949C662.264 76.2949 662.339 76.2199 662.339 76.0699H662.564C662.714 76.0699 663.389 76.5199 664.589 77.4199C665.789 78.3199 666.464 78.7699 666.614 78.7699H666.839C666.839 78.6199 666.914 78.5449 667.064 78.5449C667.214 78.5449 668.039 79.1449 669.539 80.3449C671.189 81.3949 672.164 81.9199 672.464 81.9199C672.614 81.9199 673.589 81.5449 675.389 80.7949L678.089 83.7199C678.239 83.5699 678.314 83.3449 678.314 83.0449C679.514 84.3949 680.639 85.0699 681.689 85.0699C681.989 85.0699 682.289 85.2199 682.589 85.5199L683.039 84.8449C683.039 85.1449 683.189 85.2949 683.489 85.2949C683.639 85.2949 683.714 85.2199 683.714 85.0699H683.939C685.889 86.2699 686.939 86.8699 687.089 86.8699C687.239 86.8699 687.464 86.7949 687.764 86.6449C688.064 86.4949 688.289 86.4199 688.439 86.4199C688.739 86.4199 689.264 86.7949 690.014 87.5449C690.164 87.3949 690.239 87.2449 690.239 87.0949C690.989 87.8449 692.264 88.2199 694.064 88.2199C695.414 89.1199 696.539 89.5699 697.439 89.5699C698.339 89.5699 698.864 89.6449 699.014 89.7949L700.589 90.4699C700.739 90.4699 701.114 90.3949 701.714 90.2449C702.314 90.0949 702.764 90.0199 703.064 90.0199C704.714 90.3199 705.839 90.6199 706.439 90.9199C707.039 91.0699 707.114 91.1449 706.664 91.1449C706.814 91.1449 706.964 91.0699 707.114 90.9199L707.564 91.3699L709.589 92.7199C709.889 92.7199 710.114 92.9449 710.264 93.3949L711.389 92.4949C711.839 92.9449 711.914 93.1699 711.614 93.1699L711.164 93.6199L712.064 94.2949C712.814 93.6949 713.564 93.3949 714.314 93.3949C714.164 93.3949 714.089 93.3949 714.089 93.3949C714.239 93.3949 714.389 93.3949 714.539 93.3949H714.314C713.714 93.3949 714.164 93.6199 715.664 94.0699C716.564 94.3699 717.089 94.6699 717.239 94.9699H719.714C720.014 95.8699 720.464 96.3199 721.064 96.3199C721.364 96.3199 721.439 96.2449 721.289 96.0949C721.289 95.9449 721.364 95.8699 721.514 95.8699C721.814 95.8699 722.414 96.0949 723.314 96.5449C723.464 96.5449 723.689 96.7699 723.989 97.2199C724.289 97.6699 724.589 97.8949 724.889 97.8949C725.039 97.8949 725.114 97.8199 725.114 97.6699H725.339C725.639 97.6699 726.089 98.1949 726.689 99.2449C726.839 99.0949 726.914 98.9449 726.914 98.7949L728.939 100.145C729.089 100.145 729.314 100.145 729.614 100.145C729.914 100.145 730.289 100.22 730.739 100.37C730.889 100.52 731.114 100.895 731.414 101.495C731.864 101.945 732.239 102.17 732.539 102.17C732.689 102.17 732.764 102.095 732.764 101.945H732.989C733.139 101.945 733.289 102.17 733.439 102.62C733.589 102.92 733.814 103.07 734.114 103.07C734.414 102.92 734.639 102.845 734.789 102.845C734.789 102.995 735.389 103.67 736.589 104.87C736.439 104.87 737.039 105.77 738.389 107.57C739.139 108.32 739.739 108.845 740.189 109.145C740.789 109.295 741.614 110.045 742.664 111.395C742.514 111.545 742.439 111.995 742.439 112.745L744.464 114.545C744.464 114.695 744.839 115.745 745.589 117.695C746.339 119.495 746.714 121.295 746.714 123.095C746.714 124.145 746.564 125.195 746.264 126.245C746.114 127.295 745.889 128.42 745.589 129.62C745.289 130.97 745.214 131.72 745.364 131.87C744.914 132.02 744.389 132.92 743.789 134.57C743.189 136.37 742.139 138.395 740.639 140.645C740.489 140.795 740.039 141.32 739.289 142.22C738.689 142.97 737.714 144.095 736.364 145.595L735.689 147.395C735.389 147.845 734.939 148.37 734.339 148.97C733.739 149.57 733.064 150.245 732.314 150.995L729.614 152.57C727.064 154.37 725.789 155.495 725.789 155.945V155.72H725.564C725.864 155.72 725.489 156.02 724.439 156.62C724.439 156.77 724.289 156.995 723.989 157.295C723.839 157.745 723.389 158.27 722.639 158.87C722.339 158.87 721.739 159.02 720.839 159.32C720.539 159.62 720.089 159.995 719.489 160.445C718.889 161.045 718.214 161.645 717.464 162.245L715.214 162.92C715.214 162.92 714.839 163.295 714.089 164.045C713.489 164.795 712.889 165.17 712.289 165.17C712.439 165.17 712.364 165.02 712.064 164.72H711.839C711.689 164.72 711.614 165.02 711.614 165.62H711.164C711.314 165.62 710.864 165.92 709.814 166.52C709.214 166.97 708.314 167.42 707.114 167.87C705.914 168.32 704.639 169.07 703.289 170.12C702.539 170.12 702.089 170.195 701.939 170.345L701.489 169.895C701.339 170.495 700.889 170.795 700.139 170.795C699.989 170.795 699.914 170.72 699.914 170.57H699.689C699.539 170.57 699.164 170.795 698.564 171.245C698.114 171.845 697.814 172.145 697.664 172.145L695.414 171.695C695.414 171.695 695.039 172.145 694.289 173.045C693.539 173.945 692.639 174.395 691.589 174.395C691.439 174.395 691.364 174.32 691.364 174.17L691.139 173.945C690.839 173.945 690.614 174.02 690.464 174.17C690.314 174.47 690.164 174.62 690.014 174.62H689.789C689.789 174.47 689.714 174.395 689.564 174.395C689.414 174.395 689.114 174.545 688.664 174.845C688.214 175.145 687.839 175.295 687.539 175.295H687.089C686.939 175.145 686.789 175.07 686.639 175.07C686.039 175.07 684.689 175.67 682.589 176.87L681.689 175.52C681.239 176.57 680.639 177.095 679.889 177.095C679.589 177.095 679.214 176.87 678.764 176.42H678.314C678.014 176.42 677.864 176.495 677.864 176.645C678.014 176.795 678.014 176.87 677.864 176.87H677.639C677.639 176.72 677.564 176.645 677.414 176.645C677.264 176.645 676.664 176.945 675.614 177.545C674.564 178.145 673.814 178.445 673.364 178.445C673.364 178.145 673.064 177.92 672.464 177.77C672.014 177.62 671.414 177.32 670.664 176.87L669.764 177.995H669.539L669.089 178.445C668.039 178.295 666.989 177.77 665.939 176.87V177.32H664.589C664.139 177.17 663.764 177.095 663.464 177.095C663.314 177.095 662.864 177.395 662.114 177.995C661.514 178.745 661.064 179.12 660.764 179.12ZM694.514 136.37C694.064 136.67 693.689 136.445 693.389 135.695L693.614 133.895H694.964C694.964 134.195 694.889 134.57 694.739 135.02C694.739 135.32 694.664 135.77 694.514 136.37ZM607.889 155.27H608.339V154.37H607.889V155.27Z" fill="#F7F6F3"/>
</svg>
