<svg width="407" height="168" viewBox="0 0 407 168" fill="none" xmlns="http://www.w3.org/2000/svg">
<path d="M63.2511 166.55C63.5511 164 63.8511 161.525 64.1511 159.125C64.4511 156.725 64.7511 154.325 65.0511 151.925L66.4011 139.325C66.5511 137.225 66.7011 135.275 66.8511 133.475C67.0011 131.675 67.1511 130.025 67.3011 128.525H47.7261L38.7261 160.925C35.4261 161.375 31.5261 161.9 27.0261 162.5C22.5261 162.95 18.3261 163.4 14.4261 163.85C12.0261 164.15 9.62607 164.45 7.22607 164.75C4.97607 165.05 2.65107 165.35 0.251074 165.65L18.0261 106.7C20.1261 99.65 22.5261 91.625 25.2261 82.625C27.9261 73.625 30.6261 64.4 33.3261 54.95C36.1761 45.5 38.8011 36.65 41.2011 28.4C43.7511 20 45.7761 12.95 47.2761 7.24999C57.4761 6.49999 67.8261 5.59999 78.3261 4.54999C88.9761 3.49999 99.3261 2.07499 109.376 0.274987C108.626 8.67499 107.876 18.2 107.126 28.85C106.526 39.35 105.926 50.225 105.326 61.475C104.876 72.725 104.351 83.825 103.751 94.775C103.451 105.125 103.076 115.85 102.626 126.95C102.176 137.9 101.726 149.15 101.276 160.7C99.0261 161 96.7761 161.3 94.5261 161.6C92.2761 161.9 90.0261 162.2 87.7761 162.5C84.0261 163.1 79.9011 163.775 75.4011 164.525C70.9011 165.275 66.8511 165.95 63.2511 166.55ZM53.1261 106.025C54.0261 106.025 55.6761 105.95 58.0761 105.8C60.6261 105.65 63.0261 105.5 65.2761 105.35C67.5261 105.2 68.8761 105.125 69.3261 105.125C69.3261 103.175 69.6261 99.2 70.2261 93.2C70.8261 87.2 71.4261 80.9 72.0261 74.3C72.3261 70.4 72.6261 66.425 72.9261 62.375C73.3761 58.175 73.8261 53.9 74.2761 49.55L75.6261 29.975L72.2511 30.2L67.0761 49.55L53.1261 106.025ZM103.215 167.225L114.915 108.725C116.715 97.925 118.665 86.825 120.765 75.425C122.865 64.025 124.815 52.775 126.615 41.675C128.565 30.575 130.065 20.15 131.115 10.4C139.665 7.69999 148.89 5.74999 158.79 4.54999C168.69 3.19999 178.515 2.525 188.265 2.525C199.665 2.525 207.39 5 211.44 9.95C215.64 14.9 217.74 21.575 217.74 29.975C217.74 37.625 215.94 45.35 212.34 53.15C208.74 60.8 204.015 67.775 198.165 74.075C192.465 80.225 186.165 85.1 179.265 88.7C181.965 94.7 184.815 101.3 187.815 108.5C190.965 115.55 193.89 122.3 196.59 128.75C198.09 132.5 199.59 136.25 201.09 140C202.74 143.75 204.315 147.5 205.815 151.25L170.94 163.4C169.44 158.15 168.015 153.125 166.665 148.325C165.315 143.525 164.04 138.8 162.84 134.15C161.34 128.6 159.915 123.275 158.565 118.175C157.215 112.925 156.015 108.275 154.965 104.225C154.065 100.175 153.54 97.325 153.39 95.675L150.465 96.575C149.565 101.375 148.44 107.225 147.09 114.125C145.89 121.025 144.765 127.7 143.715 134.15L139.665 157.775L103.215 167.225ZM156.09 69.575C158.79 69.275 162.09 68.15 165.99 66.2C170.04 64.1 174.015 61.55 177.915 58.55C181.965 55.55 185.34 52.475 188.04 49.325C190.74 46.175 192.09 43.4 192.09 41C192.09 38 190.29 36.05 186.69 35.15C183.24 34.1 178.665 33.575 172.965 33.575H168.015C167.115 33.725 166.29 33.8 165.54 33.8C164.79 33.8 164.04 33.8 163.29 33.8L156.09 69.575ZM237.747 167.45C228.297 167.45 220.572 163.025 214.572 154.175C208.572 145.325 205.572 133.175 205.572 117.725C205.572 103.625 207.522 89.75 211.422 76.1C215.322 62.3 220.797 49.925 227.847 38.975C234.897 28.025 243.222 19.25 252.822 12.65C262.572 5.9 273.297 2.525 284.997 2.525C292.347 2.525 298.647 5.375 303.897 11.075C309.147 16.775 311.772 24.425 311.772 34.025V36.725C311.772 37.325 311.772 37.85 311.772 38.3C311.772 38.75 311.697 39.275 311.547 39.875L282.072 47.75C280.272 44 278.172 42.125 275.772 42.125C272.172 42.125 268.347 45.05 264.297 50.9C260.397 56.75 256.647 63.725 253.047 71.825C250.647 77.225 248.472 82.775 246.522 88.475C244.722 94.175 243.297 99.5 242.247 104.45C241.197 109.4 240.672 113.45 240.672 116.6C240.672 121.25 241.347 124.625 242.697 126.725C243.747 128.675 245.397 129.65 247.647 129.65C249.897 129.65 252.372 128.6 255.072 126.5C257.772 124.25 260.247 121.475 262.497 118.175C264.897 114.875 266.472 111.575 267.222 108.275L292.872 118.625C285.522 135.425 276.747 147.8 266.547 155.75C256.497 163.55 246.897 167.45 237.747 167.45ZM328.436 167.45C322.436 167.45 316.436 165.875 310.436 162.725C304.436 159.425 298.661 154.25 293.111 147.2L309.761 114.575C311.411 117.425 313.811 120.125 316.961 122.675C320.261 125.225 323.711 127.25 327.311 128.75C330.911 130.25 333.986 131 336.536 131C340.436 131 344.111 129.8 347.561 127.4C351.161 125 352.961 121.775 352.961 117.725C352.961 112.475 350.561 107.675 345.761 103.325C340.961 98.975 335.561 94.7 329.561 90.5C323.711 86.3 318.311 81.575 313.361 76.325C308.561 70.925 306.161 64.775 306.161 57.875C306.161 50.075 308.411 42.875 312.911 36.275C317.411 29.525 323.261 23.675 330.461 18.725C337.661 13.625 345.311 9.725 353.411 7.02499C361.661 4.175 369.461 2.75 376.811 2.75C382.061 2.75 386.936 3.64999 391.436 5.44999C395.936 7.09999 399.536 9.87499 402.236 13.775C404.936 17.675 406.286 22.925 406.286 29.525C406.286 30.575 406.211 31.625 406.061 32.675C406.061 33.725 405.986 34.775 405.836 35.825C405.686 36.875 405.461 38 405.161 39.2C405.011 40.25 404.861 41.375 404.711 42.575L372.086 52.025C372.386 50.825 372.611 49.625 372.761 48.425C373.061 47.225 373.211 46.025 373.211 44.825C373.211 40.325 372.386 37.1 370.736 35.15C369.236 33.05 367.211 32 364.661 32C363.311 32 361.361 32.75 358.811 34.25C356.261 35.6 353.936 37.55 351.836 40.1C349.886 42.5 348.911 45.2 348.911 48.2C348.911 53.15 350.936 57.275 354.986 60.575C359.186 63.725 363.986 66.95 369.386 70.25C371.936 71.75 374.786 74.15 377.936 77.45C381.086 80.6 383.786 84.95 386.036 90.5C388.436 95.9 389.636 102.875 389.636 111.425C389.636 122.525 386.861 132.275 381.311 140.675C375.911 149.075 368.561 155.675 359.261 160.475C349.961 165.125 339.686 167.45 328.436 167.45Z" fill="#F7F6F3"/>
</svg>
