<svg width="131" height="29" viewBox="0 0 131 29" fill="none" xmlns="http://www.w3.org/2000/svg">
<path fill-rule="evenodd" clip-rule="evenodd" d="M119.03 0C113.679 0 110.655 0.958786 108.919 3.20575C107.105 5.55272 106.741 9.25756 106.741 14.4754C106.741 24.7178 108.449 28.9996 119.03 28.9996C120.301 28.9996 124.645 28.9772 127.182 28.69C128.168 28.5381 128.61 27.8369 128.61 27.2094V26.0781C128.61 25.1975 127.893 24.5336 126.942 24.5336H119.03C113.06 24.5336 111.983 23.2275 111.83 15.803V13.3997C111.881 5.80181 112.957 4.46605 119.03 4.46605C124.63 4.46605 125.704 5.65151 125.89 12.3406H116.992V16.856H128.695C131 16.856 131 15.3603 131 14.8688V13.4272C130.833 3.01151 128.148 0 119.03 0Z" fill="#F5F5DC"/>
<path fill-rule="evenodd" clip-rule="evenodd" d="M103.62 0.398181L103.493 0.366969C102.403 0.154242 99.4241 0 97.9477 0C92.722 0 89.96 2.0303 89.96 5.87151V27.2581C89.96 28.1387 90.624 28.7536 91.5752 28.7536H93.4339C94.385 28.7536 95.0491 28.1387 95.0491 27.2581V6.26423C95.0491 5.31636 95.3077 4.46605 98.4258 4.46605L103.043 4.46211C103.495 4.51242 103.926 4.39636 104.258 4.13545C104.621 3.85151 104.82 3.43757 104.82 2.9706V1.88879C104.82 1.17848 104.383 0.63515 103.62 0.398181Z" fill="#F5F5DC"/>
<path fill-rule="evenodd" clip-rule="evenodd" d="M81.302 0.344727H79.4433C78.4922 0.344727 77.8281 0.959574 77.8281 1.83988V24.5341H70.0973C65.3152 24.5341 63.3753 24.252 63.3753 17.1795V1.83988C63.3753 0.959574 62.7109 0.344727 61.7601 0.344727H59.954C59.0029 0.344727 58.2861 0.987453 58.2861 1.83988V17.1795C58.2861 27.231 62.2147 28.9998 70.4688 28.9998C73.4384 28.9998 77.5051 28.9998 81.3835 28.4932L81.4729 28.4765C82.4309 28.2544 82.9169 27.7453 82.9169 26.9638V1.83988C82.9169 0.959574 82.2525 0.344727 81.302 0.344727Z" fill="#F5F5DC"/>
<path fill-rule="evenodd" clip-rule="evenodd" d="M52.5529 1.04674C52.3143 0.576134 51.8027 0.294922 51.1841 0.294922H48.7949C48.101 0.294922 47.5819 0.554315 47.3086 1.02128L43.7676 5.82279L46.8677 9.75733L52.2803 2.55219C52.8743 1.8825 52.6688 1.27613 52.5529 1.04674Z" fill="#74BB11"/>
<path fill-rule="evenodd" clip-rule="evenodd" d="M33.8816 0.96753L33.8783 0.962985C33.3386 0.29541 32.6202 0.29541 32.3839 0.29541H30.047C29.4484 0.29541 28.9581 0.550561 28.7018 0.995106C28.4383 1.45026 28.494 1.99753 28.8586 2.50419L37.5163 13.6418L27.5608 26.5275C27.2129 27.012 27.1642 27.5508 27.427 28.0057C27.6846 28.4502 28.1752 28.7048 28.7728 28.7048H31.1621C31.7764 28.7048 32.3165 28.409 32.5868 27.9426L43.73 13.693L33.8816 0.96753Z" fill="#009CD9"/>
<path fill-rule="evenodd" clip-rule="evenodd" d="M53.7415 26.6395L46.7956 17.7935L43.7402 21.7022L49.2336 28.5056L49.3763 28.5634C49.6133 28.6583 49.8398 28.704 50.0692 28.704H52.4054C52.9697 28.704 53.4489 28.4713 53.7202 28.065C53.9981 27.6486 54.0059 27.1292 53.7415 26.6395Z" fill="#EB2084"/>
<path fill-rule="evenodd" clip-rule="evenodd" d="M18.3735 16.6592V24.1717C16.0078 24.5083 12.4023 24.5832 11.1736 24.5832C5.7372 24.5832 5.14185 23.2047 5.14185 20.2774C5.14185 17.5383 6.24648 16.6592 9.6867 16.6592H18.3735ZM10.9082 0.000488281C9.22849 0.000488281 6.93773 0.0407913 4.08795 0.359276L3.95899 0.385336C3.12864 0.60473 2.70806 1.11079 2.70806 1.88927V2.97109C2.70806 3.89321 3.32698 4.46654 4.32328 4.46654H10.9082C16.2107 4.46654 18.3735 5.79927 18.3735 9.06744V12.2429H9.6867C2.89724 12.2429 0 14.6456 0 20.2774C0 26.5544 2.9987 29.0001 10.6958 29.0001C13.8133 29.0001 19.5524 28.7753 21.6737 28.175C23.4623 27.7144 23.4623 26.4465 23.4623 26.0298V8.7729C23.4623 2.86988 19.3557 0.000488281 10.9082 0.000488281Z" fill="#F5F5DC"/>
</svg>
