<svg width="167" height="49" viewBox="0 0 167 49" fill="none" xmlns="http://www.w3.org/2000/svg">
<path fill-rule="evenodd" clip-rule="evenodd" d="M21.6118 46.9582C33.5476 46.9582 43.2235 36.9032 43.2235 24.4998C43.2235 12.0965 33.5476 2.0415 21.6118 2.0415C9.67589 2.0415 0 12.0965 0 24.4998C0 36.9032 9.67589 46.9582 21.6118 46.9582ZM28.3539 12.5035C28.6821 11.2922 27.5508 10.5758 26.5176 11.3407L12.0951 22.0177C10.9747 22.8472 11.1509 24.4998 12.3599 24.4998H16.1577V24.4693H23.5595L17.5285 26.6806L14.8697 36.4962C14.5415 37.7076 15.6726 38.4239 16.7059 37.659L31.1284 26.982C32.2489 26.1525 32.0725 24.4998 30.8637 24.4998H25.1043L28.3539 12.5035Z" fill="#155EEF"/>
<path d="M54.4023 34.6158V31.0633H57.1136V16.7308H54.4023V13.1783H65.0118C66.2692 13.1783 67.3596 13.4028 68.283 13.852C69.226 14.2808 69.953 14.9035 70.4638 15.7201C70.9943 16.5164 71.2595 17.476 71.2595 18.5989V18.9051C71.2595 19.8851 71.0827 20.6916 70.729 21.3245C70.3754 21.937 69.953 22.4168 69.4618 22.7639C68.9903 23.0906 68.5384 23.3253 68.1062 23.4683V24.0195C68.5384 24.142 69.0099 24.3768 69.5208 24.7239C70.0316 25.0506 70.4638 25.5303 70.8175 26.1633C71.1908 26.7962 71.3774 27.6231 71.3774 28.6439V28.9501C71.3774 30.1343 71.1122 31.1551 70.5817 32.0126C70.0512 32.8497 69.3145 33.4928 68.3714 33.942C67.448 34.3912 66.3674 34.6158 65.1296 34.6158H54.4023ZM61.0038 30.9408H64.6581C65.5029 30.9408 66.1808 30.7264 66.6916 30.2976C67.222 29.8689 67.4873 29.2564 67.4873 28.4601V28.1539C67.4873 27.3576 67.2319 26.7451 66.721 26.3164C66.2102 25.8876 65.5226 25.6733 64.6581 25.6733H61.0038V30.9408ZM61.0038 21.9983H64.5992C65.4047 21.9983 66.0629 21.7839 66.5737 21.3551C67.1042 20.9264 67.3694 20.3343 67.3694 19.5789V19.2726C67.3694 18.4968 67.114 17.9047 66.6032 17.4964C66.0923 17.0676 65.4243 16.8533 64.5992 16.8533H61.0038V21.9983Z" fill="white"/>
<path d="M80.1615 35.0445C78.7076 35.0445 77.4011 34.7383 76.2419 34.1258C75.0827 33.5133 74.1691 32.6251 73.5011 31.4614C72.8331 30.2976 72.4991 28.8991 72.4991 27.2658V26.7758C72.4991 25.1424 72.8331 23.7439 73.5011 22.5801C74.1691 21.4164 75.0827 20.5283 76.2419 19.9158C77.4011 19.3033 78.7076 18.997 80.1615 18.997C81.6154 18.997 82.9219 19.3033 84.0811 19.9158C85.2402 20.5283 86.1538 21.4164 86.8218 22.5801C87.4898 23.7439 87.8238 25.1424 87.8238 26.7758V27.2658C87.8238 28.8991 87.4898 30.2976 86.8218 31.4614C86.1538 32.6251 85.2402 33.5133 84.0811 34.1258C82.9219 34.7383 81.6154 35.0445 80.1615 35.0445ZM80.1615 31.6145C81.301 31.6145 82.2441 31.2368 82.9907 30.4814C83.7372 29.7056 84.1105 28.6031 84.1105 27.1739V26.8676C84.1105 25.4385 83.7372 24.3462 82.9907 23.5908C82.2637 22.8149 81.3207 22.427 80.1615 22.427C79.0219 22.427 78.0789 22.8149 77.3323 23.5908C76.5857 24.3462 76.2124 25.4385 76.2124 26.8676V27.1739C76.2124 28.6031 76.5857 29.7056 77.3323 30.4814C78.0789 31.2368 79.0219 31.6145 80.1615 31.6145Z" fill="white"/>
<path d="M89.7779 34.6158V13.1783H93.4912V34.6158H89.7779Z" fill="white"/>
<path d="M101.732 34.6158C100.769 34.6158 99.9833 34.3095 99.3742 33.697C98.7848 33.0641 98.4901 32.227 98.4901 31.1858V22.6108H94.8358V19.4258H98.4901V14.7095H102.203V19.4258H106.211V22.6108H102.203V30.512C102.203 31.1245 102.478 31.4308 103.029 31.4308H105.858V34.6158H101.732Z" fill="white"/>
<path d="M114.17 35.0445C112.264 35.0445 110.702 34.6158 109.484 33.7583C108.266 32.9008 107.529 31.6758 107.274 30.0833L110.693 29.1645C110.83 29.8791 111.056 30.4406 111.37 30.8489C111.704 31.2572 112.107 31.5533 112.579 31.737C113.07 31.9003 113.6 31.982 114.17 31.982C115.035 31.982 115.673 31.8289 116.086 31.5226C116.498 31.196 116.705 30.7978 116.705 30.3283C116.705 29.8587 116.508 29.5014 116.115 29.2564C115.722 28.991 115.093 28.7766 114.229 28.6133L113.404 28.4601C112.382 28.256 111.449 27.9803 110.604 27.6333C109.759 27.2658 109.081 26.7656 108.571 26.1326C108.06 25.4997 107.804 24.6831 107.804 23.6826C107.804 22.1718 108.335 21.0183 109.396 20.222C110.457 19.4053 111.852 18.997 113.581 18.997C115.211 18.997 116.567 19.3747 117.648 20.1301C118.728 20.8856 119.435 21.8758 119.769 23.1008L116.321 24.2033C116.164 23.4274 115.84 22.8762 115.349 22.5495C114.877 22.2228 114.288 22.0595 113.581 22.0595C112.873 22.0595 112.333 22.1922 111.96 22.4576C111.586 22.7026 111.4 23.0497 111.4 23.4989C111.4 23.9889 111.596 24.3564 111.989 24.6014C112.382 24.826 112.913 24.9995 113.581 25.122L114.406 25.2751C115.506 25.4793 116.498 25.7549 117.382 26.102C118.286 26.4287 118.993 26.9085 119.504 27.5414C120.035 28.1539 120.3 28.991 120.3 30.0526C120.3 31.6451 119.74 32.8803 118.62 33.7583C117.52 34.6158 116.037 35.0445 114.17 35.0445Z" fill="white"/>
<path d="M122.08 34.6158V13.1783H125.794V21.2939H126.324C126.481 20.9672 126.727 20.6406 127.061 20.3139C127.395 19.9872 127.837 19.7218 128.387 19.5176C128.957 19.2931 129.674 19.1808 130.538 19.1808C131.678 19.1808 132.67 19.4564 133.515 20.0076C134.379 20.5385 135.047 21.2837 135.519 22.2433C135.991 23.1824 136.226 24.2849 136.226 25.5508V34.6158H132.513V25.857C132.513 24.7137 132.238 23.8562 131.688 23.2845C131.157 22.7128 130.391 22.427 129.389 22.427C128.25 22.427 127.365 22.8251 126.737 23.6214C126.108 24.3972 125.794 25.4895 125.794 26.8983V34.6158H122.08Z" fill="white"/>
<path d="M138.767 34.6158V19.4258H142.48V34.6158H138.767ZM140.624 17.6495C139.956 17.6495 139.386 17.4249 138.914 16.9758C138.462 16.5266 138.236 15.9345 138.236 15.1995C138.236 14.4645 138.462 13.8724 138.914 13.4233C139.386 12.9741 139.956 12.7495 140.624 12.7495C141.311 12.7495 141.881 12.9741 142.333 13.4233C142.785 13.8724 143.011 14.4645 143.011 15.1995C143.011 15.9345 142.785 16.5266 142.333 16.9758C141.881 17.4249 141.311 17.6495 140.624 17.6495Z" fill="white"/>
<path d="M147.538 34.6158V22.6108H143.825V19.4258H147.538V16.6083C147.538 15.567 147.833 14.7401 148.422 14.1276C149.031 13.4947 149.817 13.1783 150.78 13.1783H154.611V16.3633H152.077C151.526 16.3633 151.251 16.6695 151.251 17.282V19.4258H155.083V22.6108H151.251V34.6158H147.538Z" fill="white"/>
<path d="M161.795 34.6158C160.833 34.6158 160.047 34.3095 159.438 33.697C158.848 33.0641 158.554 32.227 158.554 31.1858V22.6108H154.899V19.4258H158.554V14.7095H162.267V19.4258H166.275V22.6108H162.267V30.512C162.267 31.1245 162.542 31.4308 163.092 31.4308H165.921V34.6158H161.795Z" fill="white"/>
</svg>
