<svg width="167" height="43" viewBox="0 0 167 43" fill="none" xmlns="http://www.w3.org/2000/svg">
<path d="M30.6224 10.0001C30.2579 9.6129 29.8933 9.2257 29.5288 8.83851C28.4351 7.59948 27.2686 6.36045 25.8104 5.58605C24.1335 4.65678 22.3107 4.88909 20.488 4.88909C17.7174 4.88909 10.791 4.88909 6.70801 4.88909L9.47858 8.83851C14.5094 8.83851 22.3836 8.83851 26.0291 8.83851C27.5602 8.83851 28.8726 9.14827 30.1121 10.0001C30.3308 10.0775 30.5495 10.0775 30.6224 10.0001Z" fill="#66C61C"/>
<path d="M33.6841 16.3502C33.3196 15.963 32.955 15.5758 32.5905 15.1886C31.4968 13.9496 30.3303 12.7105 28.8721 11.9361C27.1951 11.0069 25.3724 11.2392 23.5496 11.2392C21.1436 11.2392 15.3837 11.2392 11.3008 11.2392L14.0714 15.1886C19.0292 15.1886 25.8098 15.1886 29.1637 15.1886C30.6948 15.1886 32.0072 15.4984 33.2466 16.3502C33.3925 16.4276 33.5383 16.4276 33.6841 16.3502Z" fill="#4CA30D"/>
<path d="M37.1116 22.545C36.7471 22.1578 36.3825 21.7706 36.018 21.3834C34.9243 20.1444 33.7578 18.9054 32.2996 18.131C30.6226 17.2017 28.7999 17.434 26.9771 17.434C24.7169 17.434 19.7591 17.434 15.749 17.434L18.5196 21.3834C23.3316 21.3834 29.4561 21.3834 32.5183 21.3834C34.0494 21.3834 35.3618 21.6932 36.6012 22.545C36.82 22.6225 36.9658 22.6999 37.1116 22.545Z" fill="#3B7C0F"/>
<path d="M6.41602 32.9995C6.78056 33.3867 7.14511 33.7739 7.50966 34.1611C8.60331 35.4001 9.76986 36.6391 11.2281 37.4135C12.905 38.3428 14.7277 38.1105 16.5505 38.1105H30.3305L27.5599 34.1611C22.5291 34.1611 14.6548 34.1611 11.0093 34.1611C9.47823 34.1611 8.16585 33.8513 6.92638 32.9995C6.70765 32.922 6.56184 32.922 6.41602 32.9995Z" fill="#66C61C"/>
<path d="M3.35352 26.6499C3.71806 27.0371 4.08261 27.4243 4.44716 27.8115C5.54081 29.0505 6.70736 30.2895 8.16556 31.0639C9.84249 31.9932 11.6652 31.7609 13.488 31.7609H25.7368L22.9663 27.8115C18.0084 27.8115 11.2278 27.8115 7.87392 27.8115C6.34282 27.8115 5.03044 27.5017 3.79097 26.6499C3.64515 26.5724 3.49934 26.5724 3.35352 26.6499Z" fill="#4CA30D"/>
<path d="M0 20.3769C0.364549 20.7641 0.729098 21.1513 1.09365 21.5385C2.1873 22.7775 3.35386 24.0166 4.81205 24.791C6.48898 25.7203 8.31172 25.4879 10.1345 25.4879H21.3626L18.592 21.5385C13.78 21.5385 7.65554 21.5385 4.59332 21.5385C3.06222 21.5385 1.74983 21.2288 0.510367 20.3769C0.291637 20.2995 0.14582 20.2995 0 20.3769Z" fill="#3B7C0F"/>
<path d="M45.4883 12.5488V30.4583H49.196V23.0587H56.2573V19.9986H49.196V15.8598H57.3436V12.5488H45.4883Z" fill="white"/>
<path d="M66.643 22.5822H61.1877C61.2034 22.3313 61.2507 22.0471 61.3294 21.7293C61.4238 21.4116 61.5734 21.1106 61.7781 20.8263C61.9985 20.5421 62.2819 20.3079 62.6283 20.124C62.9904 19.9233 63.4391 19.823 63.9744 19.823C64.7931 19.823 65.3992 20.0571 65.7928 20.5253C66.2022 20.9936 66.4856 21.6792 66.643 22.5822ZM61.1877 24.8397H69.9965C70.0595 23.8363 69.9808 22.8748 69.7603 21.9551C69.5399 21.0354 69.1778 20.216 68.674 19.4969C68.1859 18.7779 67.5562 18.2093 66.7847 17.7912C66.0132 17.3565 65.108 17.1391 64.0688 17.1391C63.1399 17.1391 62.2898 17.3147 61.5183 17.6658C60.7626 18.017 60.1092 18.5019 59.5582 19.1207C59.0071 19.7227 58.582 20.4417 58.2829 21.2778C57.9838 22.1139 57.8342 23.0169 57.8342 23.9868C57.8342 24.9902 57.9759 25.9099 58.2593 26.746C58.5584 27.5821 58.9756 28.3012 59.5109 28.9032C60.0462 29.5052 60.6996 29.9734 61.4711 30.3078C62.2425 30.6256 63.1085 30.7844 64.0688 30.7844C65.4543 30.7844 66.6351 30.45 67.6113 29.7811C68.5874 29.1122 69.3116 28.0002 69.784 26.445H66.8319C66.7217 26.8463 66.4226 27.2309 65.9345 27.5988C65.4465 27.95 64.8639 28.1256 64.1869 28.1256C63.2423 28.1256 62.5181 27.8664 62.0142 27.348C61.5104 26.8296 61.2349 25.9935 61.1877 24.8397Z" fill="white"/>
<path d="M71.1353 21.4785C71.1825 20.6424 71.3793 19.9484 71.7257 19.3966C72.072 18.8447 72.5129 18.4016 73.0482 18.0672C73.5835 17.7327 74.1817 17.4986 74.843 17.3648C75.52 17.2143 76.197 17.1391 76.874 17.1391C77.488 17.1391 78.1099 17.1892 78.7397 17.2896C79.3694 17.3732 79.9441 17.5488 80.4636 17.8163C80.9832 18.0839 81.4083 18.4601 81.7389 18.9451C82.0695 19.4133 82.2348 20.0404 82.2348 20.8263V27.5737C82.2348 28.159 82.2663 28.7192 82.3293 29.2543C82.3923 29.7894 82.5025 30.1908 82.6599 30.4583H79.2592C79.1962 30.2577 79.1411 30.057 79.0939 29.8563C79.0624 29.6389 79.0388 29.4216 79.023 29.2042C78.4877 29.7894 77.858 30.1991 77.1338 30.4332C76.4095 30.6674 75.6696 30.7844 74.9138 30.7844C74.3313 30.7844 73.7881 30.7092 73.2843 30.5587C72.7805 30.4082 72.3397 30.1741 71.9618 29.8563C71.584 29.5386 71.2848 29.1373 71.0644 28.6523C70.8597 28.1674 70.7574 27.5905 70.7574 26.9216C70.7574 26.1858 70.8755 25.5838 71.1116 25.1156C71.3635 24.6306 71.6784 24.246 72.0563 23.9617C72.4499 23.6775 72.8907 23.4684 73.3788 23.3347C73.8826 23.1842 74.3864 23.0671 74.8902 22.9835C75.394 22.8999 75.89 22.833 76.378 22.7828C76.8661 22.7327 77.2991 22.6574 77.6769 22.5571C78.0548 22.4567 78.3539 22.3146 78.5743 22.1307C78.7948 21.93 78.8971 21.6457 78.8813 21.2778C78.8813 20.8932 78.8184 20.5922 78.6924 20.3748C78.5822 20.1407 78.4248 19.9651 78.2201 19.8481C78.0312 19.7143 77.8029 19.6307 77.5352 19.5972C77.2833 19.5471 77.0078 19.522 76.7087 19.522C76.0474 19.522 75.5279 19.6725 75.15 19.9735C74.7721 20.2745 74.5517 20.7762 74.4887 21.4785H71.1353ZM78.8813 24.1122C78.7397 24.246 78.5586 24.3547 78.3382 24.4383C78.1335 24.5052 77.9052 24.5637 77.6533 24.6139C77.4171 24.6641 77.1652 24.7059 76.8976 24.7393C76.6299 24.7728 76.3623 24.8146 76.0946 24.8647C75.8427 24.9149 75.5908 24.9818 75.3389 25.0654C75.1028 25.149 74.8902 25.2661 74.7013 25.4166C74.5281 25.5504 74.3864 25.7259 74.2762 25.9433C74.166 26.1607 74.1109 26.4366 74.1109 26.7711C74.1109 27.0888 74.166 27.3564 74.2762 27.5737C74.3864 27.7911 74.536 27.9667 74.7249 28.1005C74.9138 28.2176 75.1343 28.3012 75.3862 28.3513C75.6381 28.4015 75.8978 28.4266 76.1655 28.4266C76.8267 28.4266 77.3384 28.3095 77.7005 28.0754C78.0627 27.8413 78.3303 27.5654 78.5035 27.2477C78.6767 26.9132 78.779 26.5788 78.8105 26.2443C78.8577 25.9099 78.8813 25.6423 78.8813 25.4417V24.1122Z" fill="white"/>
<path d="M88.3802 17.4902V13.6023H85.0267V17.4902H82.9957V19.8732H85.0267V27.5236C85.0267 28.1757 85.1291 28.7025 85.3337 29.1038C85.5384 29.5052 85.8139 29.8145 86.1603 30.0319C86.5224 30.2493 86.9318 30.3914 87.3883 30.4583C87.8607 30.5419 88.3566 30.5837 88.8762 30.5837C89.2068 30.5837 89.5453 30.5754 89.8916 30.5587C90.238 30.5419 90.5529 30.5085 90.8363 30.4583V27.6992C90.6789 27.7326 90.5135 27.7577 90.3404 27.7744C90.1672 27.7911 89.9861 27.7995 89.7972 27.7995C89.2304 27.7995 88.8525 27.6992 88.6636 27.4985C88.4747 27.2978 88.3802 26.8965 88.3802 26.2945V19.8732H90.8363V17.4902H88.3802Z" fill="white"/>
<path d="M91.7234 12.5488V30.4583H95.0769V23.6607C95.0769 22.3397 95.2815 21.3949 95.6909 20.8263C96.1002 20.2411 96.7615 19.9484 97.6746 19.9484C98.4776 19.9484 99.0365 20.216 99.3514 20.7511C99.6663 21.2695 99.8237 22.0638 99.8237 23.134V30.4583H103.177V22.4818C103.177 21.6792 103.106 20.9517 102.965 20.2996C102.839 19.6307 102.61 19.0705 102.28 18.619C101.949 18.1508 101.493 17.7912 100.91 17.5404C100.343 17.2729 99.6112 17.1391 98.7138 17.1391C98.084 17.1391 97.4385 17.3147 96.7772 17.6658C96.116 18.0003 95.5728 18.5437 95.1477 19.2962H95.0769V12.5488H91.7234Z" fill="white"/>
<path d="M113.232 22.5822H107.777C107.793 22.3313 107.84 22.0471 107.919 21.7293C108.013 21.4116 108.163 21.1106 108.367 20.8263C108.588 20.5421 108.871 20.3079 109.218 20.124C109.58 19.9233 110.028 19.823 110.564 19.823C111.382 19.823 111.989 20.0571 112.382 20.5253C112.792 20.9936 113.075 21.6792 113.232 22.5822ZM107.777 24.8397H116.586C116.649 23.8363 116.57 22.8748 116.35 21.9551C116.129 21.0354 115.767 20.216 115.263 19.4969C114.775 18.7779 114.146 18.2093 113.374 17.7912C112.603 17.3565 111.697 17.1391 110.658 17.1391C109.729 17.1391 108.879 17.3147 108.108 17.6658C107.352 18.017 106.699 18.5019 106.148 19.1207C105.596 19.7227 105.171 20.4417 104.872 21.2778C104.573 22.1139 104.424 23.0169 104.424 23.9868C104.424 24.9902 104.565 25.9099 104.849 26.746C105.148 27.5821 105.565 28.3012 106.1 28.9032C106.636 29.5052 107.289 29.9734 108.06 30.3078C108.832 30.6256 109.698 30.7844 110.658 30.7844C112.044 30.7844 113.224 30.45 114.201 29.7811C115.177 29.1122 115.901 28.0002 116.373 26.445H113.421C113.311 26.8463 113.012 27.2309 112.524 27.5988C112.036 27.95 111.453 28.1256 110.776 28.1256C109.832 28.1256 109.107 27.8664 108.604 27.348C108.1 26.8296 107.824 25.9935 107.777 24.8397Z" fill="white"/>
<path d="M117.866 17.4902V30.4583H121.22V24.6139C121.22 24.0286 121.275 23.4852 121.385 22.9835C121.495 22.4818 121.676 22.0471 121.928 21.6792C122.196 21.2946 122.542 20.9936 122.967 20.7762C123.392 20.5588 123.912 20.4501 124.526 20.4501C124.731 20.4501 124.943 20.4668 125.164 20.5002C125.384 20.517 125.573 20.5421 125.73 20.5755V17.2645C125.463 17.1809 125.219 17.1391 124.998 17.1391C124.573 17.1391 124.164 17.206 123.77 17.3397C123.377 17.4735 123.007 17.6658 122.66 17.9167C122.314 18.1508 122.007 18.4434 121.739 18.7946C121.472 19.129 121.259 19.4969 121.102 19.8982H121.054V17.4902H117.866Z" fill="white"/>
<path d="M130.399 27.1473V15.8598H133.044C133.957 15.8598 134.72 16.002 135.334 16.2862C135.964 16.5538 136.468 16.9468 136.846 17.4652C137.224 17.9836 137.491 18.6106 137.649 19.3464C137.822 20.0655 137.909 20.8765 137.909 21.7795C137.909 22.7661 137.791 23.6022 137.554 24.2878C137.318 24.9734 137.003 25.5336 136.61 25.9684C136.216 26.3865 135.767 26.6875 135.264 26.8714C134.76 27.0554 134.24 27.1473 133.705 27.1473H130.399ZM126.691 12.5488V30.4583H133.965C135.256 30.4583 136.374 30.2326 137.318 29.7811C138.279 29.3129 139.074 28.6774 139.703 27.8747C140.349 27.0721 140.829 26.1189 141.144 25.0152C141.459 23.9116 141.616 22.7076 141.616 21.4032C141.616 19.915 141.42 18.619 141.026 17.5153C140.648 16.4117 140.113 15.4919 139.42 14.7562C138.743 14.0204 137.932 13.4686 136.988 13.1007C136.059 12.7328 135.051 12.5488 133.965 12.5488H126.691Z" fill="white"/>
<path d="M151.351 22.5822H145.896C145.912 22.3313 145.959 22.0471 146.038 21.7293C146.132 21.4116 146.282 21.1106 146.486 20.8263C146.707 20.5421 146.99 20.3079 147.336 20.124C147.699 19.9233 148.147 19.823 148.683 19.823C149.501 19.823 150.107 20.0571 150.501 20.5253C150.91 20.9936 151.194 21.6792 151.351 22.5822ZM145.896 24.8397H154.705C154.768 23.8363 154.689 22.8748 154.469 21.9551C154.248 21.0354 153.886 20.216 153.382 19.4969C152.894 18.7779 152.264 18.2093 151.493 17.7912C150.721 17.3565 149.816 17.1391 148.777 17.1391C147.848 17.1391 146.998 17.3147 146.227 17.6658C145.471 18.017 144.817 18.5019 144.266 19.1207C143.715 19.7227 143.29 20.4417 142.991 21.2778C142.692 22.1139 142.542 23.0169 142.542 23.9868C142.542 24.9902 142.684 25.9099 142.967 26.746C143.267 27.5821 143.684 28.3012 144.219 28.9032C144.754 29.5052 145.408 29.9734 146.179 30.3078C146.951 30.6256 147.817 30.7844 148.777 30.7844C150.163 30.7844 151.343 30.45 152.319 29.7811C153.296 29.1122 154.02 28.0002 154.492 26.445H151.54C151.43 26.8463 151.131 27.2309 150.643 27.5988C150.155 27.95 149.572 28.1256 148.895 28.1256C147.951 28.1256 147.226 27.8664 146.722 27.348C146.219 26.8296 145.943 25.9935 145.896 24.8397Z" fill="white"/>
<path d="M162.739 30.4583L166.872 17.4902H163.542L160.968 26.3447H160.921L158.347 17.4902H154.828L159.008 30.4583H162.739Z" fill="white"/>
</svg>
